<svg xmlns="http://www.w3.org/2000/svg" width="1024" height="1024" viewBox="0 0 1024 1024">
<g>
<path d="M 391.30 745.51 C382.52,747.04 340.04,747.70 338.67,746.33 C338.30,745.97 338.02,685.55 338.05,612.08 C338.10,486.12 338.20,478.64 339.80,480.98 C345.79,489.70 354.90,495.61 364.07,496.69 L 368.97 497.27 L 369.23 523.63 L 369.50 549.99 L 381.50 550.37 L 393.50 550.75 L 398.28 546.30 C404.00,540.99 409.89,538.22 418.28,536.90 C424.06,535.99 426.41,535.70 427.36,534.39 C428.01,533.49 428.01,532.13 428.00,529.77 C428.00,529.57 428.00,529.36 428.00,529.14 C428.00,516.52 423.00,504.94 413.49,495.50 C406.59,488.65 400.82,485.26 389.70,481.53 L 381.89 478.91 L 378.87 481.46 C376.42,483.51 374.78,484.00 370.29,484.00 C356.60,484.00 353.30,480.93 346.92,462.24 C344.34,454.68 340.61,444.64 338.63,439.93 C336.65,435.21 334.25,428.37 333.30,424.72 C331.18,416.65 332.19,411.56 337.51,403.55 C345.90,390.91 373.67,366.62 391.72,356.14 C407.70,346.86 425.57,342.00 443.72,342.00 C453.70,342.00 469.84,344.76 476.60,347.63 C478.75,348.54 484.21,349.63 488.74,350.06 C496.77,350.81 501.12,352.50 506.39,356.91 C508.88,359.00 512.98,367.81 512.99,371.09 C513.00,373.12 517.61,378.33 534.25,395.11 C558.29,419.35 561.10,421.75 570.65,426.22 C576.43,428.93 578.94,429.49 586.75,429.83 C591.84,430.06 596.00,430.55 596.00,430.92 C596.00,432.92 589.57,441.22 584.09,446.27 C574.17,455.43 566.83,458.56 542.38,464.04 C503.56,472.73 493.29,480.14 478.88,509.83 C474.52,518.81 469.23,528.49 467.12,531.34 C458.95,542.40 448.37,548.45 429.92,552.60 C416.14,555.71 412.45,557.17 409.35,560.76 C407.03,563.44 405.02,568.76 405.01,572.25 C405.00,573.70 404.07,574.00 399.54,574.00 C386.60,574.00 376.92,581.08 369.82,595.75 C366.48,602.66 365.60,605.67 365.24,611.40 C364.86,617.64 365.10,618.93 367.18,622.00 C370.50,626.90 377.58,631.36 386.32,634.07 L 393.76 636.39 L 392.74 639.32 C391.73,642.22 391.64,642.25 385.94,641.65 C382.76,641.32 375.52,639.44 369.83,637.47 C364.15,635.51 358.79,633.67 357.93,633.38 C356.78,633.00 354.68,635.60 350.18,642.95 C346.78,648.50 344.00,653.43 344.00,653.89 C344.00,654.71 361.96,662.00 363.99,662.00 C365.49,662.00 365.25,663.18 362.50,669.40 C361.12,672.51 360.00,675.42 360.00,675.86 C360.00,676.30 364.10,677.58 369.11,678.71 L 378.23 680.75 L 384.19 667.24 L 392.86 666.82 C407.55,666.12 415.62,660.41 423.01,645.47 C432.88,625.56 427.96,615.51 404.66,607.98 C401.00,606.80 398.00,605.52 398.00,605.14 C398.00,604.76 398.70,603.44 399.56,602.22 C401.60,599.31 405.44,599.34 419.78,602.37 L 430.99 604.74 L 437.47 594.14 C441.03,588.31 443.62,583.22 443.22,582.83 C442.83,582.44 438.69,581.02 434.04,579.68 C429.39,578.34 425.46,576.85 425.32,576.37 C425.17,575.89 425.86,573.70 426.85,571.50 L 428.65 567.50 L 449.58 567.50 C470.28,567.50 470.55,567.47 475.52,564.85 C481.97,561.44 489.02,553.87 492.90,546.20 C496.24,539.58 498.02,538.49 503.88,539.48 C512.19,540.88 516.80,545.92 515.60,552.30 C514.15,560.03 502.39,574.80 492.65,581.13 C482.92,587.45 476.99,589.25 463.76,589.91 L 452.01 590.50 L 455.08 595.00 C467.11,612.67 473.07,640.31 469.63,662.50 C462.80,706.48 432.80,738.27 391.30,745.51 ZM 574.64 745.93 C563.72,747.15 427.96,747.44 428.06,746.25 C428.09,745.84 431.27,743.47 435.11,741.00 C445.16,734.53 455.13,723.62 466.47,706.68 C479.31,687.49 485.09,682.44 498.08,679.08 C502.16,678.02 505.41,676.78 505.29,676.33 C505.18,675.87 503.45,671.77 501.45,667.20 C492.22,646.11 493.27,621.63 504.32,600.50 C510.23,589.19 525.39,574.02 536.01,568.78 C547.83,562.96 554.53,561.52 569.50,561.58 C580.85,561.63 583.52,561.98 590.50,564.32 C607.14,569.89 610.61,573.97 607.57,584.40 C605.80,590.51 600.85,597.00 597.97,597.00 C596.97,597.00 592.50,595.23 588.03,593.08 C569.53,584.13 550.36,587.63 536.01,602.57 C520.46,618.76 517.69,641.24 528.67,662.17 C532.05,668.62 539.49,676.62 548.31,683.29 C551.13,685.43 552.00,686.79 552.00,689.11 C552.00,696.79 548.81,697.97 525.50,698.90 C509.90,699.53 506.95,699.91 503.36,701.78 C498.95,704.07 491.73,711.70 492.32,713.45 C492.83,715.00 556.93,715.42 568.99,713.95 C588.39,711.59 604.40,704.95 619.25,693.12 C645.39,672.30 659.00,644.73 659.00,612.62 C659.00,598.71 658.01,591.93 654.31,580.50 C645.54,553.43 625.98,530.50 601.03,518.04 C583.07,509.07 576.13,508.00 536.07,507.99 C500.59,507.99 495.42,507.43 496.58,503.69 C500.22,491.98 520.72,480.52 546.14,475.99 C555.55,474.32 568.57,470.39 575.44,467.16 C588.09,461.21 603.47,445.97 610.88,432.07 C616.94,420.70 619.25,411.68 619.77,397.38 C620.64,373.67 615.64,357.12 602.40,339.88 C591.88,326.19 578.70,317.32 560.54,311.72 C553.57,309.57 552.64,309.55 461.25,309.24 L 369.00 308.93 L 369.00 355.88 L 362.75 360.68 C359.31,363.32 352.34,369.23 347.25,373.82 L 338.00 382.16 L 338.00 277.00 L 447.45 277.00 C522.40,277.00 558.57,277.34 562.20,278.09 C583.71,282.50 603.02,292.95 618.94,308.79 C658.64,348.30 665.00,411.76 633.91,458.22 C631.60,461.67 625.22,468.94 619.74,474.37 C612.19,481.83 610.09,484.45 611.13,485.12 C611.88,485.61 615.74,487.66 619.71,489.66 C635.88,497.85 656.64,516.50 667.92,532.96 C678.26,548.05 685.50,565.11 689.63,584.05 C691.97,594.83 692.25,626.74 690.10,637.50 C684.89,663.42 671.86,687.82 653.00,706.96 C630.79,729.49 604.41,742.61 574.64,745.93 ZM 445.01 517.25 C445.63,520.41 446.53,523.00 447.00,523.00 C448.49,523.00 451.52,517.99 459.44,502.50 C472.91,476.13 481.96,465.87 499.98,456.56 C509.82,451.48 518.35,449.08 539.36,445.49 C554.10,442.97 559.01,441.49 557.36,440.08 C556.89,439.68 554.03,437.60 551.00,435.47 C547.97,433.34 537.27,423.49 527.22,413.58 C511.30,397.88 508.71,395.71 507.22,396.76 C501.94,400.48 497.07,402.93 493.81,403.53 C490.68,404.10 489.72,403.81 487.58,401.67 C485.36,399.45 485.18,398.78 486.10,396.13 C486.68,394.48 488.74,391.91 490.68,390.43 C494.73,387.34 497.00,382.67 497.00,377.43 C497.00,374.61 496.21,373.01 493.47,370.27 C490.24,367.04 489.57,366.79 485.45,367.25 C481.74,367.67 479.99,368.67 475.53,372.88 C466.75,381.19 462.35,379.65 463.24,368.57 C463.26,368.31 463.28,368.06 463.30,367.82 C463.51,365.30 463.64,363.71 462.95,362.68 C461.72,360.86 457.89,360.78 447.29,360.30 C436.90,359.82 433.66,360.06 425.49,361.95 C414.35,364.52 403.41,369.71 392.31,377.66 C384.24,383.45 368.32,396.83 364.09,401.38 L 361.68 403.96 L 364.34 406.05 C366.59,407.82 367.00,408.92 367.00,413.14 C367.00,419.20 366.11,421.02 359.86,427.69 C354.50,433.42 354.42,433.66 356.35,438.30 C360.84,449.04 378.48,454.25 390.85,448.49 C399.36,444.53 404.00,445.42 404.00,451.03 C404.00,454.18 401.21,456.91 394.50,460.30 C391.27,461.94 390.03,463.01 391.00,463.34 C391.83,463.62 394.30,464.39 396.50,465.05 C404.56,467.48 416.67,474.00 423.27,479.47 C435.28,489.42 441.72,500.61 445.01,517.25 ZM 422.69 406.05 C418.63,408.52 414.37,408.52 410.31,406.05 C406.37,403.65 405.00,401.19 405.00,396.53 C405.00,383.85 423.17,380.61 426.78,392.65 C428.45,398.23 426.83,403.52 422.69,406.05 ZM 363.16 470.25 C366.48,473.07 369.00,472.53 369.00,469.00 C369.00,466.16 366.08,462.00 364.08,462.00 C363.58,462.00 362.39,461.70 361.44,461.34 C359.93,460.76 359.80,461.15 360.41,464.59 C360.79,466.74 362.03,469.29 363.16,470.25 Z" fill="rgb(24,81,77)"/>
<path d="M 0.00 512.00 L 0.00 0.00 L 512.00 0.00 L 1024.00 0.00 L 1024.00 512.00 L 1024.00 1024.00 L 512.00 1024.00 L 0.00 1024.00 L 0.00 512.00 ZM 391.30 745.51 C432.80,738.27 462.80,706.48 469.63,662.50 C473.07,640.31 467.11,612.67 455.08,595.00 L 452.01 590.50 L 463.76 589.91 C476.99,589.25 482.92,587.45 492.65,581.13 C502.39,574.80 514.15,560.03 515.60,552.30 C516.80,545.92 512.19,540.88 503.88,539.48 C498.02,538.49 496.24,539.58 492.90,546.20 C489.02,553.87 481.97,561.44 475.52,564.85 C470.55,567.47 470.28,567.50 449.58,567.50 L 428.65 567.50 L 426.85 571.50 C425.86,573.70 425.17,575.89 425.32,576.37 C425.46,576.85 429.39,578.34 434.04,579.68 C438.69,581.02 442.83,582.44 443.22,582.83 C443.62,583.22 441.03,588.31 437.47,594.14 L 430.99 604.74 L 419.78 602.37 C405.44,599.34 401.60,599.31 399.56,602.22 C398.70,603.44 398.00,604.76 398.00,605.14 C398.00,605.52 401.00,606.80 404.66,607.98 C427.96,615.51 432.88,625.56 423.01,645.47 C415.62,660.41 407.55,666.12 392.86,666.82 L 384.19 667.24 L 381.21 673.99 L 378.23 680.75 L 369.11 678.71 C364.10,677.58 360.00,676.30 360.00,675.86 C360.00,675.42 361.12,672.51 362.50,669.40 C365.25,663.18 365.49,662.00 363.99,662.00 C361.96,662.00 344.00,654.71 344.00,653.89 C344.00,653.43 346.78,648.50 350.18,642.95 C354.68,635.60 356.78,633.00 357.93,633.38 C358.79,633.67 364.15,635.51 369.83,637.47 C375.52,639.44 382.76,641.32 385.94,641.65 C391.64,642.25 391.73,642.22 392.74,639.32 L 393.76 636.39 L 386.32 634.07 C377.58,631.36 370.50,626.90 367.18,622.00 C365.10,618.93 364.86,617.64 365.24,611.40 C365.60,605.67 366.48,602.66 369.82,595.75 C376.92,581.08 386.60,574.00 399.54,574.00 C404.07,574.00 405.00,573.70 405.01,572.25 C405.02,568.76 407.03,563.44 409.35,560.76 C412.45,557.17 416.14,555.71 429.92,552.60 C448.37,548.45 458.95,542.40 467.12,531.34 C469.23,528.49 474.52,518.81 478.88,509.83 C493.29,480.14 503.56,472.73 542.38,464.04 C566.83,458.56 574.17,455.43 584.09,446.27 C589.57,441.22 596.00,432.92 596.00,430.92 C596.00,430.55 591.84,430.06 586.75,429.83 C578.94,429.49 576.43,428.93 570.65,426.22 C561.10,421.75 558.29,419.35 534.25,395.11 C517.61,378.33 513.00,373.12 512.99,371.09 C512.98,367.81 508.88,359.00 506.39,356.91 C501.12,352.50 496.77,350.81 488.74,350.06 C484.21,349.63 478.75,348.54 476.60,347.63 C469.84,344.76 453.70,342.00 443.72,342.00 C425.57,342.00 407.70,346.86 391.72,356.14 C373.67,366.62 345.90,390.91 337.51,403.55 C332.19,411.56 331.18,416.65 333.30,424.72 C334.25,428.37 336.65,435.21 338.63,439.93 C340.61,444.64 344.34,454.68 346.92,462.24 C353.30,480.93 356.60,484.00 370.29,484.00 C374.78,484.00 376.42,483.51 378.87,481.46 L 381.89 478.91 L 389.70 481.53 C400.82,485.26 406.59,488.65 413.49,495.50 C423.00,504.94 428.00,516.52 428.00,529.14 C428.00,535.60 428.35,535.32 418.28,536.90 C409.89,538.22 404.00,540.99 398.28,546.30 L 393.50 550.75 L 381.50 550.37 L 369.50 549.99 L 369.23 523.63 L 368.97 497.27 L 364.07 496.69 C354.90,495.61 345.79,489.70 339.80,480.98 C338.20,478.64 338.10,486.12 338.05,612.08 C338.02,685.55 338.30,745.97 338.67,746.33 C340.04,747.70 382.52,747.04 391.30,745.51 ZM 574.64 745.93 C604.41,742.61 630.79,729.49 653.00,706.96 C671.86,687.82 684.89,663.42 690.10,637.50 C692.25,626.74 691.97,594.83 689.63,584.05 C685.50,565.11 678.26,548.05 667.92,532.96 C656.64,516.50 635.88,497.85 619.71,489.66 C615.74,487.66 611.88,485.61 611.13,485.12 C610.09,484.45 612.19,481.83 619.74,474.37 C625.22,468.94 631.60,461.67 633.91,458.22 C665.00,411.76 658.64,348.30 618.94,308.79 C603.02,292.95 583.71,282.50 562.20,278.09 C558.57,277.34 522.40,277.00 447.45,277.00 L 338.00 277.00 L 338.00 329.58 L 338.00 382.16 L 347.25 373.82 C352.34,369.23 359.31,363.32 362.75,360.68 L 369.00 355.88 L 369.00 332.41 L 369.00 308.93 L 461.25 309.24 C552.64,309.55 553.57,309.57 560.54,311.72 C578.70,317.32 591.88,326.19 602.40,339.88 C615.64,357.12 620.64,373.67 619.77,397.38 C619.25,411.68 616.94,420.70 610.88,432.07 C603.47,445.97 588.09,461.21 575.44,467.16 C568.57,470.39 555.55,474.32 546.14,475.99 C520.72,480.52 500.22,491.98 496.58,503.69 C495.42,507.43 500.59,507.99 536.07,507.99 C576.13,508.00 583.07,509.07 601.03,518.04 C625.98,530.50 645.54,553.43 654.31,580.50 C658.01,591.93 659.00,598.71 659.00,612.62 C659.00,644.73 645.39,672.30 619.25,693.12 C604.40,704.95 588.39,711.59 568.99,713.95 C556.93,715.42 492.83,715.00 492.32,713.45 C491.73,711.70 498.95,704.07 503.36,701.78 C506.95,699.91 509.90,699.53 525.50,698.90 C548.81,697.97 552.00,696.79 552.00,689.11 C552.00,686.79 551.13,685.43 548.31,683.29 C539.49,676.62 532.05,668.62 528.67,662.17 C517.69,641.24 520.46,618.76 536.01,602.57 C550.36,587.63 569.53,584.13 588.03,593.08 C592.50,595.23 596.97,597.00 597.97,597.00 C600.85,597.00 605.80,590.51 607.57,584.40 C610.61,573.97 607.14,569.89 590.50,564.32 C583.52,561.98 580.85,561.63 569.50,561.58 C554.53,561.52 547.83,562.96 536.01,568.78 C525.39,574.02 510.23,589.19 504.32,600.50 C493.27,621.63 492.22,646.11 501.45,667.20 C503.45,671.77 505.18,675.87 505.29,676.33 C505.41,676.78 502.16,678.02 498.08,679.08 C485.09,682.44 479.31,687.49 466.47,706.68 C455.13,723.62 445.16,734.53 435.11,741.00 C431.27,743.47 428.09,745.84 428.06,746.25 C427.96,747.44 563.72,747.15 574.64,745.93 ZM 445.01 517.25 C441.72,500.61 435.28,489.42 423.27,479.47 C416.67,474.00 404.56,467.48 396.50,465.05 C394.30,464.39 391.83,463.62 391.00,463.34 C390.03,463.01 391.27,461.94 394.50,460.30 C401.21,456.91 404.00,454.18 404.00,451.03 C404.00,445.42 399.36,444.53 390.85,448.49 C378.48,454.25 360.84,449.04 356.35,438.30 C354.42,433.66 354.50,433.42 359.86,427.69 C366.11,421.02 367.00,419.20 367.00,413.14 C367.00,408.92 366.59,407.82 364.34,406.05 L 361.68 403.96 L 364.09 401.38 C368.32,396.83 384.24,383.45 392.31,377.66 C403.41,369.71 414.35,364.52 425.49,361.95 C433.66,360.06 436.90,359.82 447.29,360.30 C464.43,361.09 463.87,360.79 463.24,368.57 C462.35,379.65 466.75,381.19 475.53,372.88 C479.99,368.67 481.74,367.67 485.45,367.25 C489.57,366.79 490.24,367.04 493.47,370.27 C496.21,373.01 497.00,374.61 497.00,377.43 C497.00,382.67 494.73,387.34 490.68,390.43 C488.74,391.91 486.68,394.48 486.10,396.13 C485.18,398.78 485.36,399.45 487.58,401.67 C489.72,403.81 490.68,404.10 493.81,403.53 C497.07,402.93 501.94,400.48 507.22,396.76 C508.71,395.71 511.30,397.88 527.22,413.58 C537.27,423.49 547.97,433.34 551.00,435.47 C554.03,437.60 556.89,439.68 557.36,440.08 C559.01,441.49 554.10,442.97 539.36,445.49 C518.35,449.08 509.82,451.48 499.98,456.56 C481.96,465.87 472.91,476.13 459.44,502.50 C451.52,517.99 448.49,523.00 447.00,523.00 C446.53,523.00 445.63,520.41 445.01,517.25 ZM 422.69 406.05 C426.83,403.52 428.45,398.23 426.78,392.65 C423.17,380.61 405.00,383.85 405.00,396.53 C405.00,401.19 406.37,403.65 410.31,406.05 C414.37,408.52 418.63,408.52 422.69,406.05 ZM 363.16 470.25 C362.03,469.29 360.79,466.74 360.41,464.59 C359.80,461.15 359.93,460.76 361.44,461.34 C362.39,461.70 363.58,462.00 364.08,462.00 C366.08,462.00 369.00,466.16 369.00,469.00 C369.00,472.53 366.48,473.07 363.16,470.25 Z" fill="rgb(250,254,254)"/>
</g>
</svg>