<svg xmlns="http://www.w3.org/2000/svg" viewBox="0 0 500 500"><g id="freepik--background-complete--inject-3"><rect y="382.4" width="500" height="0.25" style="fill:#ebebeb"></rect><rect x="52.46" y="391.92" width="33.12" height="0.25" style="fill:#ebebeb"></rect><rect x="145.33" y="389.21" width="34.5" height="0.25" style="fill:#ebebeb"></rect><rect x="76.08" y="396.75" width="55.42" height="0.25" style="fill:#ebebeb"></rect><rect x="405.64" y="397.67" width="43.19" height="0.25" style="fill:#ebebeb"></rect><rect x="370.43" y="391.42" width="22.9" height="0.25" style="fill:#ebebeb"></rect><rect x="195.63" y="395.43" width="93.68" height="0.25" style="fill:#ebebeb"></rect><path d="M237,337.8H43.91a5.71,5.71,0,0,1-5.7-5.71V60.66A5.71,5.71,0,0,1,43.91,55H237a5.71,5.71,0,0,1,5.71,5.71V332.09A5.71,5.71,0,0,1,237,337.8ZM43.91,55.2a5.46,5.46,0,0,0-5.45,5.46V332.09a5.46,5.46,0,0,0,5.45,5.46H237a5.47,5.47,0,0,0,5.46-5.46V60.66A5.47,5.47,0,0,0,237,55.2Z" style="fill:#ebebeb"></path><path d="M453.31,337.8H260.21a5.72,5.72,0,0,1-5.71-5.71V60.66A5.72,5.72,0,0,1,260.21,55h193.1A5.71,5.71,0,0,1,459,60.66V332.09A5.71,5.71,0,0,1,453.31,337.8ZM260.21,55.2a5.47,5.47,0,0,0-5.46,5.46V332.09a5.47,5.47,0,0,0,5.46,5.46h193.1a5.47,5.47,0,0,0,5.46-5.46V60.66a5.47,5.47,0,0,0-5.46-5.46Z" style="fill:#ebebeb"></path><path d="M281.23,136.94c2.39-9.48-3.32-17.14-12.82-17.14a19.81,19.81,0,0,0-6.8,1.26c-1.58-6.94-7.47-11.73-15.71-11.73-10,0-20.14,7-24.65,16.35-9.54.6-19,8.4-21.48,17.94-2.58,9.92,3.37,18,13.3,18h57.2c7,0,14.23-5.7,16.06-12.74C287.75,143.41,285.55,138.77,281.23,136.94Z" style="fill:#fafafa"></path><path d="M339.06,93.17c1.41-5.25,6.79-9.49,12.05-9.49a8.35,8.35,0,0,1,3.4.69c2.88-3.84,7.52-6.49,12.09-6.49,5.52,0,9.13,3.87,8.93,9.05,5.11.34,8.1,4.65,6.72,9.94-1.43,5.5-7.05,9.95-12.55,9.95H338c-3.9,0-6.24-3.16-5.22-7.06A10,10,0,0,1,339.06,93.17Z" style="fill:#f5f5f5"></path><path d="M73,214.14a8,8,0,0,1,7.28-5.73,5,5,0,0,1,2.06.42,9.51,9.51,0,0,1,7.31-3.93,5.1,5.1,0,0,1,5.4,5.47c3.09.21,4.89,2.82,4.06,6a8.35,8.35,0,0,1-7.59,6H72.32a3.19,3.19,0,0,1-3.16-4.27A6.06,6.06,0,0,1,73,214.14Z" style="fill:#fafafa"></path><path d="M79.62,106.66c1.85-6.86,8.86-12.39,15.73-12.39a10.83,10.83,0,0,1,4.44.9c3.76-5,9.82-8.48,15.78-8.48,7.21,0,11.93,5.06,11.66,11.83,6.67.43,10.57,6.07,8.78,13-1.87,7.18-9.21,13-16.39,13H78.26c-5.09,0-8.14-4.12-6.81-9.21A13,13,0,0,1,79.62,106.66Z" style="fill:#f5f5f5"></path><path d="M403.5,177a7.34,7.34,0,0,1,6.66-5.25,4.51,4.51,0,0,1,1.88.39,8.72,8.72,0,0,1,6.68-3.6,4.67,4.67,0,0,1,4.94,5c2.83.19,4.48,2.57,3.72,5.49a7.64,7.64,0,0,1-6.94,5.51H402.92a2.92,2.92,0,0,1-2.88-3.91A5.51,5.51,0,0,1,403.5,177Z" style="fill:#f5f5f5"></path><rect y="364.35" width="500" height="18.05" style="fill:#fafafa"></rect><path d="M347.66,337.08c-37.1,6.39-118,27.27-178.73,10.86S0,326.21,0,326.21v38.14H500V335S410.71,326.21,347.66,337.08Z" style="fill:#ebebeb"></path><polygon points="61.23 320.22 56.11 340.8 66.36 340.8 61.23 320.22" style="fill:#f5f5f5"></polygon><polygon points="83.15 328.78 79.55 343.24 86.75 343.24 83.15 328.78" style="fill:#f5f5f5"></polygon><polygon points="346.48 327.37 342.88 341.84 350.08 341.84 346.48 327.37" style="fill:#f5f5f5"></polygon><polygon points="413.82 337.51 411.3 347.62 416.33 347.62 413.82 337.51" style="fill:#f5f5f5"></polygon><polygon points="426.72 326.57 425.19 332.72 428.25 332.72 426.72 326.57" style="fill:#f5f5f5"></polygon><polygon points="431.67 326.72 430.13 332.87 433.2 332.87 431.67 326.72" style="fill:#f5f5f5"></polygon><polygon points="441.79 326.64 440.26 332.8 443.32 332.8 441.79 326.64" style="fill:#f5f5f5"></polygon><polygon points="464.78 327.37 463.25 333.53 466.31 333.53 464.78 327.37" style="fill:#f5f5f5"></polygon></g><g id="freepik--Shadow--inject-3"><ellipse id="freepik--path--inject-3" cx="250" cy="416.24" rx="193.89" ry="11.32" style="fill:#f5f5f5"></ellipse></g><g id="freepik--Kite--inject-3"><rect x="201.09" y="106.08" width="1.02" height="6.83" transform="translate(41.03 273.35) rotate(-74.09)" style="fill:#407BFF"></rect><rect x="222.69" y="103.58" width="1.02" height="24.14" transform="translate(50.79 298.59) rotate(-74.09)" style="fill:#407BFF"></rect><polyline points="185.04 101.59 166.42 62.72 226.9 70.08 278.52 128.24" style="fill:#407BFF"></polyline><g style="opacity:0.30000000000000004"><path d="M269.69,124a1,1,0,0,1-.46-.12L171.16,66.55a.91.91,0,0,1-.32-1.25.9.9,0,0,1,1.25-.33l98.07,57.32a.91.91,0,0,1-.47,1.7Z" style="fill:#fff"></path><path d="M188.2,100.17a.91.91,0,0,1-.73-.37.92.92,0,0,1,.18-1.28l35.61-26.8a.91.91,0,0,1,1.1,1.46L188.75,100A.9.9,0,0,1,188.2,100.17Z" style="fill:#fff"></path></g><path d="M371.33,216.08c-5.2,0-9.76-1.56-12.93-4.45-3.48-3.16-5.13-7.69-6.73-12.07-1.35-3.7-2.74-7.52-5.23-10.52a6.94,6.94,0,0,0-4.08-2.74c-1.66-.26-3.22.42-4.87,1.15a12.26,12.26,0,0,1-4.18,1.27c-5.06.25-8-5.48-8.8-7.25-.34-.78-.66-1.58-1-2.36-1.15-2.87-2.33-5.83-4.7-7.73a3.86,3.86,0,0,0-2.26-1c-1.56,0-2.62,1.23-3.75,2.58s-2.18,2.63-3.8,2.88c-3.12.48-5-3.29-5.63-4.93a116.65,116.65,0,0,1-4.33-14.29c-1.46-5.67-3-11.54-5.47-16.91l-.16-.35c-1.41-3-2.87-6.16-5.6-7.85a16.32,16.32,0,0,0-5.14-1.72,17.75,17.75,0,0,1-4.6-1.43A.27.27,0,0,1,278,128a.26.26,0,0,1,.35-.11,17.54,17.54,0,0,0,4.48,1.39,16.92,16.92,0,0,1,5.3,1.78c2.86,1.77,4.42,5.12,5.79,8.08l.17.35c2.52,5.41,4,11.3,5.5,17a116.89,116.89,0,0,0,4.31,14.23c.61,1.52,2.31,5,5.06,4.6,1.42-.22,2.47-1.48,3.48-2.69,1.15-1.4,2.38-2.83,4.16-2.78a4.37,4.37,0,0,1,2.58,1.12c2.47,2,3.69,5,4.86,7.94.31.78.63,1.58,1,2.34.75,1.7,3.59,7.19,8.29,6.94a12,12,0,0,0,4-1.22c1.65-.73,3.35-1.47,5.16-1.19a7.51,7.51,0,0,1,4.4,2.92c2.55,3.07,4,6.94,5.33,10.68,1.57,4.32,3.2,8.79,6.58,11.87s8.2,4.52,13.75,4.27a.27.27,0,1,1,0,.53Z" style="fill:#263238"></path></g><g id="freepik--character-2--inject-3"><path d="M321.24,240.87l1.07-.17,1.32-.23c.9-.19,1.82-.36,2.73-.6,1.83-.45,3.67-1,5.49-1.59a72.5,72.5,0,0,0,10.66-4.63c2.76-1.37,5.75-4.07,8.62-6.9s5.74-6,8.57-9l5.42,3.36A70.68,70.68,0,0,1,358.66,233a55.34,55.34,0,0,1-4.27,5.53c-.81.9-1.66,1.79-2.6,2.66-.48.44-1,.87-1.52,1.29s-1.17.88-1.61,1.16a58.72,58.72,0,0,1-6,3.67,56.39,56.39,0,0,1-6.39,3,54.13,54.13,0,0,1-6.77,2.22c-1.16.3-2.34.56-3.55.77-.61.11-1.21.21-1.85.29l-1,.1-.52.05-.63,0Z" style="fill:#ffb573"></path><path d="M320.23,257.64c9.08,5.79,23.48-7.1,23.48-7.1l-3.59-16.23s-17.48-.29-27.47,3C302.88,240.5,312.78,252.88,320.23,257.64Z" style="fill:#407BFF"></path><path d="M357.08,220.66l2.92-6.35,7.95,5.15s-2.48,4.89-7.69,5.16Z" style="fill:#ffb573"></path><path d="M368.26,212.9l.43.53a4.11,4.11,0,0,1,0,5.14l-.73.89L360,214.31l2.48-2A4.08,4.08,0,0,1,368.26,212.9Z" style="fill:#ffb573"></path><path d="M306.84,408.89c1.09.1,2.15,0,2.54-.42a.75.75,0,0,0,.07-.87,1,1,0,0,0-.6-.53c-1.37-.51-4.48.91-4.61,1a.19.19,0,0,0-.12.2.19.19,0,0,0,.14.17A14.44,14.44,0,0,0,306.84,408.89Zm1.49-1.52a1.42,1.42,0,0,1,.38.08.61.61,0,0,1,.37.31c.12.27.06.38,0,.45-.44.51-2.58.33-4.14,0A8.93,8.93,0,0,1,308.33,407.37Z" style="fill:#407BFF"></path><path d="M304.3,408.42h.09c1.06-.36,3.25-2,3.18-3,0-.23-.15-.53-.69-.63a1.48,1.48,0,0,0-1.15.24c-1.15.79-1.59,3-1.61,3.14a.22.22,0,0,0,.07.19A.16.16,0,0,0,304.3,408.42Zm2.38-3.24h.12c.36.07.37.22.37.26,0,.59-1.47,1.9-2.56,2.43a4.69,4.69,0,0,1,1.35-2.51A1.05,1.05,0,0,1,306.68,405.18Z" style="fill:#407BFF"></path><polygon points="294.07 411.94 302.53 412.71 305.15 393.18 296.68 392.41 294.07 411.94" style="fill:#ffb573"></polygon><path d="M303.51,407.16l-9.24-.84a.75.75,0,0,0-.78.52l-2.35,7.37a1.24,1.24,0,0,0,1.08,1.62c3.34.24,6.27.32,10.47.7,4.9.44,3.6.91,9.34,1.52,3.47.36,4.46-3.53,3-3.85-6.65-1.46-7.17-3.55-9.54-6.2A3,3,0,0,0,303.51,407.16Z" style="fill:#263238"></path><polygon points="305.15 393.18 303.68 404.16 295.21 403.4 296.68 392.42 305.15 393.18" style="opacity:0.2"></polygon><path d="M322.24,301.93a230,230,0,0,1-1.12,46.82c-3.39,26.76-13.29,50.66-13.29,50.66l-14.09-3.69s3.28-20.09,5-46.53c1.91-28.81-6.3-50-6.3-50Z" style="fill:#263238"></path><path d="M297.4,313.33c7.4,2.32,4.56,14.8,1.58,23.17a133.74,133.74,0,0,0-2.67-23.18Z" style="opacity:0.30000000000000004"></path><path d="M241.29,383.8c.61.91,1.33,1.69,1.93,1.71a.77.77,0,0,0,.72-.51,1,1,0,0,0,0-.8c-.48-1.38-3.55-2.88-3.68-2.94a.2.2,0,0,0-.23,0,.22.22,0,0,0-.05.23A14.27,14.27,0,0,0,241.29,383.8Zm2.12.19a1.4,1.4,0,0,1,.18.34.63.63,0,0,1,0,.49c-.13.26-.26.29-.35.28-.67,0-1.89-1.78-2.6-3.21A9,9,0,0,1,243.41,384Z" style="fill:#407BFF"></path><path d="M240,381.55l.06.06c1,.59,3.63,1.23,4.33.56.17-.16.31-.45,0-.94a1.46,1.46,0,0,0-.91-.73c-1.34-.39-3.36.71-3.45.76a.21.21,0,0,0-.1.17A.21.21,0,0,0,240,381.55Zm4-.23.06.1c.17.32.07.42,0,.46-.43.4-2.4.07-3.51-.44a4.77,4.77,0,0,1,2.8-.55A1.13,1.13,0,0,1,244.05,381.32Z" style="fill:#407BFF"></path><polygon points="230.81 375.89 235.6 382.91 252.33 372.51 247.54 365.49 230.81 375.89" style="fill:#ffb573"></polygon><path d="M240.5,380.14l-5.23-7.67a.74.74,0,0,0-.89-.27l-7.19,2.88a1.24,1.24,0,0,0-.56,1.86c1.94,2.73,4.83,6.62,7.2,10.09,2.78,4.07.74,1.56,4,6.33,2,2.88,5.43,1.69,4.87.3-2.55-6.31-2.12-8-1.59-11.46A2.94,2.94,0,0,0,240.5,380.14Z" style="fill:#263238"></path><polygon points="252.33 372.51 242.92 378.36 238.12 371.34 247.53 365.49 252.33 372.51" style="opacity:0.2"></polygon><path d="M306.18,300.47s-6.23,25-18.06,46.88c-12.95,24-39.07,31.6-39.07,31.6l-8.12-12.31s17.14-12.81,25.64-27.54C274.4,311.44,277,297.83,277,297.83Z" style="fill:#263238"></path><path d="M252.92,379c0,.06-5.53,2.4-5.53,2.4l-9.07-15,4.31-3.17Z" style="fill:#407BFF"></path><path d="M310.56,396.87c.07,0-1.67,5.8-1.67,5.8l-17.33-2.53.3-5.35Z" style="fill:#407BFF"></path><path d="M328.14,247.05c.47,8,1.66,27-4.25,57.35L274,300.72c.29-6.42,8.67-28.12,6.64-57a7.81,7.81,0,0,1,7.49-8.4c2.23-.08,4.7-.1,7.12,0A169.28,169.28,0,0,1,314.48,237c2.45.45,4.83,1.05,6.87,1.63A9.29,9.29,0,0,1,328.14,247.05Z" style="fill:#407BFF"></path><path d="M280.9,255.61c-.11,4.88-.46,9.48-1,13.76,5.36-5.36,6-13.76,6-13.76Z" style="opacity:0.30000000000000004"></path><path d="M342.16,243.55l-.86,8.4-10.66-.84,1-10.21,10.07.79-.17-.78-9.82-.76.58-5.69h-.16c-.21,0-.43,0-.64,0l-.58,5.58-10.66-.84.39-3.72c-.25,0-.51.08-.76.11h-.06l-.36,3.54-10.66-.83.21-2.07-.79-.08-.21,2.08-10.67-.83.21-2h0l-.6,0h-.2l-.2,2-10.66-.83.08-.91,0-.17a5.42,5.42,0,0,0-.81.08l-.05.4-.05.53-.81-.06a7.23,7.23,0,0,0-1,.68l1.7.14L284,247.46l-3.21-.25c0,.26,0,.51,0,.77l3.09.24-1,10.22-2.09-.17,0,.77,2,.16-1,10.21-1.85-.14c0,.25-.05.51-.09.76l1.86.15-1,10.21-2.41-.19-.15.76,2.48.18-1,10.22-3.63-.28-.18.75,3.73.29-.92,8.93.8.06.92-8.92,10.65.83-.91,8.87h0l.78.06h0l.91-8.88,10.66.83-.9,8.83.79.07h0l.9-8.82,10.66.83-.89,8.78.79.06.89-8.78,10.67.84-.24,2.43c.15-.87.29-1.73.43-2.58q1-6.42,1.67-12.05c.26-2.25.47-4.41.65-6.47.06-.6.1-1.19.15-1.77.06-.76.12-1.5.16-2.23.08-1.22.15-2.41.21-3.56.1-1.88.17-3.66.2-5.35L327.6,273l-10.66-.83L318,262l10.56.82c0-.27,0-.52,0-.77l-10.49-.82L319.11,251l10.66.83-.7,6.89.58-.13.24-.08.67-6.62,10.45.82c.4-.29.77-.58,1.1-.83l.6-5.84Zm-44.84-5.34L308,239l-1,10.22-10.66-.84ZM305.4,272l10.67.83L315,283.08l-10.66-.84Zm-1.83,10.15-10.66-.84,1-10.21,10.66.84Zm1.12-11L294,270.37l1.05-10.21,10.66.83Zm-9.54-11.81,1-10.21,10.67.83-1.05,10.21Zm-9.29-22.09,10.66.84-1,10.21-10.67-.84Zm-1.12,11,10.66.84-1,10.21-10.65-.83Zm-1.13,11,10.67.83-1,10.22-10.67-.84Zm-1.11,11,10.66.84-1.05,10.21-10.66-.83Zm8.49,22-10.66-.84,1-10.21L292,282Zm11.46.9-10.67-.84,1-10.22,10.67.84Zm11.45.89-10.66-.83L304.29,283l10.66.84Zm11.46.89-10.66-.83,1-10.21,10.66.83Zm2.16-21.17-1,10.21-10.67-.83,1.05-10.23Zm-11.37-1.67-10.66-.83,1-10.22,10.66.84Zm1.12-11-10.67-.84,1-10.21,10.66.83Zm1.12-11-10.66-.84,1-10.22,10.67.85Zm11.46.89-10.67-.83,1-10.22,10.67.84Z" style="fill:#fff;opacity:0.30000000000000004"></path><path d="M300.44,220.85c0,6-1,12.8-4.64,15.46,0,0,4.17,8.34,16.26,8.35,8.79,0,4.11-6.15,4.11-6.15-5.71-3.11-5.32-7.48-3.52-12.14l-8.52-7.5C302.72,217.46,300.44,218.66,300.44,220.85Z" style="fill:#ffb573"></path><path d="M300.44,220.85c0-2.19,2.27-3.39,3.69-2l8.52,7.49a12.64,12.64,0,0,0-1.08,6.5,12.34,12.34,0,0,1-5.8-1.21,12.89,12.89,0,0,1-5.68-5A45.15,45.15,0,0,0,300.44,220.85Z" style="opacity:0.2"></path><path d="M290.59,213.56c3,7.93,4.32,12.74,10.18,15.5,8.81,4.15,18.93-3,18.65-11.7-.25-7.87-5.73-20.16-15.62-20.68S287.57,205.64,290.59,213.56Z" style="fill:#ffb573"></path><path d="M285.2,212c.49,4.08,6.85,7.47,6.85,7.47l6.31-.56s-4.12-4-3-9.26S285.82,205,285.2,212Z" style="fill:#263238"></path><path d="M287.7,195.56c-7.11,5.45-4.2,12.28-5.89,17.6,4.86,1.54,12.83-2.74,16.39-4.62.64-.33,1.29-.62,1.89-1,.93-.57.77-4.29.77-4.29s1.21,2.48,1.12,3.28c5.41-2.9,10.1-5.66,11.26-7.87C311.78,192.25,299.85,186.24,287.7,195.56Z" style="fill:#263238"></path><path d="M312.76,216.84h0a6.77,6.77,0,0,1-6.21.25.25.25,0,0,1-.1-.33.24.24,0,0,1,.32-.09,6.37,6.37,0,0,0,5.76-.25.24.24,0,0,1,.23.42Z" style="fill:#263238"></path><path d="M306.15,210.45c.36.66,1,1,1.42.77s.49-1,.14-1.61-1-1-1.43-.77S305.79,209.79,306.15,210.45Z" style="fill:#263238"></path><path d="M313.53,207.13c.36.66,1,1,1.42.77s.49-1,.13-1.62-1-1-1.42-.76S313.17,206.47,313.53,207.13Z" style="fill:#263238"></path><path d="M303,211.21a.44.44,0,0,0,.18-.43,3.52,3.52,0,0,1,.91-3,.44.44,0,0,0,0-.62.43.43,0,0,0-.62,0,4.38,4.38,0,0,0-1.19,3.83.45.45,0,0,0,.5.37A.47.47,0,0,0,303,211.21Z" style="fill:#263238"></path><path d="M316.27,202.61a.35.35,0,0,0,.2-.18.43.43,0,0,0-.14-.6,4.35,4.35,0,0,0-4-.37.44.44,0,1,0,.37.79h0a3.51,3.51,0,0,1,3.16.33A.44.44,0,0,0,316.27,202.61Z" style="fill:#263238"></path><path d="M312.06,208.54a22.62,22.62,0,0,0,5.08,3.69A3.7,3.7,0,0,1,314.6,214Z" style="fill:#ed893e"></path><path d="M291.09,221.78a6.88,6.88,0,0,0,4.77,1.69c2.16-.15,2.17-2.45.67-4.26-1.34-1.63-4.08-3.52-5.82-2.47S289.36,220.31,291.09,221.78Z" style="fill:#ffb573"></path><path d="M287.67,251l-2.06,2.36-2.11,2.48c-1.41,1.66-2.79,3.35-4.17,5q-4.12,5.12-8,10.44l-.24.33-.06.08v0s0,0,0-.05a2,2,0,0,0,.09-.36,2.1,2.1,0,0,0-.05-1.09c-.24-.57-.3-.2.08.24a10.94,10.94,0,0,0,1.64,1.63,26.72,26.72,0,0,0,2.34,1.7,113.4,113.4,0,0,0,11.32,6.19l-1.73,6.14a56.79,56.79,0,0,1-7.08-1.38,52.54,52.54,0,0,1-7-2.31,33,33,0,0,1-3.55-1.73,19.32,19.32,0,0,1-3.68-2.63,13.13,13.13,0,0,1-1.87-2.14,10.14,10.14,0,0,1-1.54-3.37,9.27,9.27,0,0,1,.07-4.47,10.21,10.21,0,0,1,.76-1.93l.4-.73.22-.39c1.17-2.05,2.38-4.08,3.68-6.06s2.61-3.93,4-5.84,2.83-3.78,4.34-5.61c.75-.91,1.51-1.82,2.31-2.71s1.57-1.74,2.51-2.71Z" style="fill:#ffb573"></path><path d="M281.21,279.59l6.91-1.09.12,9.48s-5.45.64-8.56-3.55Z" style="fill:#ffb573"></path><path d="M293.93,283.29l-1.54,3.4a2.53,2.53,0,0,1-2.62,1.47l-1.53-.18-.12-9.48,4.24,1.31A2.55,2.55,0,0,1,293.93,283.29Z" style="fill:#ffb573"></path><path d="M286.64,235.45c-10.77,0-21.13,17.18-21.13,17.18l10.63,17.18s6.95-7.64,13.61-15.77C296.26,246.08,295.48,235.45,286.64,235.45Z" style="fill:#407BFF"></path><path d="M292.82,248.92a5.78,5.78,0,0,0,.29-.75l-8.3-.65,1.05-10.21,6.45.51a4.71,4.71,0,0,0-.84-.83l-5.53-.43.11-1.08-.4,0h0c-.12,0-.25,0-.37.06l-.1.93-2.73-.22c-.5.19-1,.41-1.49.65l4.15.33L284,247.46l-10.66-.83.45-4.43-.64.64-.25.26-.36,3.47-2.53-.2c-.13.14-.25.29-.37.44l-.09.1a1.26,1.26,0,0,1-.13.17h0l3,.24-1,10.23-3.05-.25h0l.41.64.1.16,2.47.2-.33,3.26h0l.68,1.09.44-4.29,10.66.83-.35,3.46c.29-.34.6-.68.9-1l.24-2.36,1.67.13.61-.72-2.19-.17,1-10.22Zm-9.92,9.52-10.66-.84,1-10.21,10.66.83Z" style="fill:#fff;opacity:0.30000000000000004"></path></g><g id="freepik--character-1--inject-3"><path d="M188,220.17c.26.85.92,1.4,1.47,1.23s.79-1,.54-1.83-.92-1.4-1.47-1.23S187.74,219.33,188,220.17Z" style="fill:#263238"></path><path d="M189.63,221.4a21.49,21.49,0,0,0,4.23,4.07,3.47,3.47,0,0,1-2.59,1.34Z" style="fill:#a02724"></path><path d="M184,218.21a.54.54,0,0,0,.27-.18,4.13,4.13,0,0,1,3.33-1.72.52.52,0,1,0,.08-1,5.14,5.14,0,0,0-4.24,2.12.52.52,0,0,0,.1.73A.51.51,0,0,0,184,218.21Z" style="fill:#263238"></path><path d="M175.85,233.88c-.07,5.56-.94,12-4.06,14.48,0,0,.87,6,11.08,7.12,11.22,1.21,6-5.28,6-5.28-4.76-2.84-4.38-6.92-2.83-11.29L179,232C177.79,230.69,175.87,231.84,175.85,233.88Z" style="fill:#b55b52"></path><path d="M170.32,249.48c-.49-2-1-4.22.89-4.58,2.1-.4,13,.63,16.56,2.61a4.22,4.22,0,0,1,1.84,5.53Z" style="fill:#263238"></path><path d="M167.29,258.66c-.27.19-.69.51-1,.79l-1.13.89c-.75.6-1.48,1.24-2.2,1.88-1.45,1.29-2.82,2.65-4.13,4a49.81,49.81,0,0,0-3.63,4.4,40.37,40.37,0,0,0-2.93,4.74l.36-2.08a35.85,35.85,0,0,0,.43,4.55,46.69,46.69,0,0,0,1,4.66c.4,1.56.88,3.12,1.41,4.68s1.15,3.15,1.72,4.59l.07.16a2.37,2.37,0,0,1-4,2.41c-.65-.77-1.18-1.47-1.72-2.23s-1.05-1.51-1.54-2.29a43.87,43.87,0,0,1-2.63-4.87,38.9,38.9,0,0,1-2-5.28,36.4,36.4,0,0,1-1.24-5.69,3.36,3.36,0,0,1,.23-1.79l.13-.29a38.85,38.85,0,0,1,3.23-6.29,44.94,44.94,0,0,1,4.11-5.59,51.71,51.71,0,0,1,4.77-4.93c.85-.76,1.71-1.5,2.61-2.22.44-.36.89-.72,1.36-1.06s.92-.66,1.52-1.07a4.74,4.74,0,0,1,5.45,7.75Z" style="fill:#b55b52"></path><path d="M159.62,288.65l-5.84-1.43-3.06,3.63c1.17,4.73,6.1,6.14,6.1,6.14l2.06,1.09a2.26,2.26,0,0,0,2.79-.54l2.25-2.64a2.28,2.28,0,0,0-.28-3.21l-3.11-2.58A2.18,2.18,0,0,0,159.62,288.65Z" style="fill:#b55b52"></path><path d="M181.18,308.19s-5.82,23.32-16.87,43.8c-12.1,22.43-44.13,33.77-44.13,33.77L117,380.52s25.63-18.2,34.54-30.48c2.35-20.8,5-44.17,5-44.17Z" style="fill:#b55b52"></path><path d="M123.15,388.66c.64.79,1.36,1.47,1.93,1.44a.72.72,0,0,0,.63-.52,1,1,0,0,0,0-.74c-.55-1.26-3.52-2.44-3.64-2.49a.19.19,0,0,0-.21,0,.2.2,0,0,0,0,.21A14.88,14.88,0,0,0,123.15,388.66Zm2,0a1.13,1.13,0,0,1,.19.31.55.55,0,0,1,0,.45c-.1.25-.22.28-.3.29-.63,0-1.9-1.53-2.66-2.81A8.23,8.23,0,0,1,125.14,388.68Z" style="fill:#407BFF"></path><path d="M121.82,386.64l.06.05c.94.48,3.47.89,4.08.22.14-.16.25-.44,0-.88a1.37,1.37,0,0,0-.9-.61c-1.28-.27-3.09.9-3.16.95a.2.2,0,0,0-.09.17A.18.18,0,0,0,121.82,386.64Zm3.73-.49.06.09c.19.28.1.38.07.42-.37.4-2.23.24-3.3-.16a4.41,4.41,0,0,1,2.57-.71A1,1,0,0,1,125.55,386.15Z" style="fill:#407BFF"></path><path d="M122.16,385.29,118,380.08a1.46,1.46,0,0,0-1.81-.38l-5.49,2.87a1.44,1.44,0,0,0-.45,2.21c1.73,2.08,3.86,4.49,6.2,7.41,2.87,3.59.79,1.4,4.16,5.61,2,2.54,5.18,1.19,4.56-.06-2.72-5.5-2.55-7.14-2.31-10.22A3.71,3.71,0,0,0,122.16,385.29Z" style="fill:#263238"></path><path d="M192.58,309.23A140.43,140.43,0,0,1,194,353c-3.16,25-16.12,56.56-16.12,56.56l-7-.92s7.26-27,8.89-51.67c-2.8-22.8-11.33-49.9-11.33-49.9Z" style="fill:#b55b52"></path><path d="M181.8,409.49c1,.09,2,0,2.38-.39a.72.72,0,0,0,.06-.82,1,1,0,0,0-.56-.49c-1.28-.48-4.19.85-4.31.91a.17.17,0,0,0-.11.18.18.18,0,0,0,.13.17A15.14,15.14,0,0,0,181.8,409.49Zm1.39-1.42a1.77,1.77,0,0,1,.36.07.57.57,0,0,1,.34.3c.12.24.06.36,0,.42-.41.48-2.41.31-3.86,0A8.53,8.53,0,0,1,183.19,408.07Z" style="fill:#407BFF"></path><path d="M179.43,409.05h.08c1-.35,3-1.89,3-2.79,0-.22-.14-.49-.65-.59a1.36,1.36,0,0,0-1.06.23c-1.09.73-1.49,2.84-1.51,2.93a.19.19,0,0,0,.06.18A.15.15,0,0,0,179.43,409.05Zm2.22-3,.11,0c.34.06.35.2.35.24,0,.55-1.37,1.78-2.4,2.27a4.43,4.43,0,0,1,1.27-2.34A1,1,0,0,1,181.65,406Z" style="fill:#407BFF"></path><path d="M178.69,407.88l-7.29-.66a1.17,1.17,0,0,0-1.23.82l-2,6.51a1.17,1.17,0,0,0,1,1.51c2.87.21,4.8.22,8.69.57,4.58.42,3.37.86,8.73,1.42,3.25.34,4.17-3.3,2.8-3.6-6-1.31-6.65-3.18-8.68-5.52A3.59,3.59,0,0,0,178.69,407.88Z" style="fill:#263238"></path><path d="M198.49,257.53c2.15,11.71,0,28.42-4.63,52L155,305.72c2.85-13.61,7.91-24,6.36-52a6.32,6.32,0,0,1,6.3-6.67s13.73,1.27,22.91,2.75A9.54,9.54,0,0,1,198.49,257.53Z" style="fill:#407BFF"></path><path d="M198.67,305.1c1.63,1.66,3.44,3,4.72,2.83a1.62,1.62,0,0,0,1.31-1.34,2.11,2.11,0,0,0-.24-1.68c-1.54-2.73-8.57-4.71-8.87-4.79a.43.43,0,0,0-.46.16.42.42,0,0,0,0,.49A31.61,31.61,0,0,0,198.67,305.1Zm4.53-.43a3.67,3.67,0,0,1,.51.66,1.29,1.29,0,0,1,.16,1c-.16.59-.43.69-.61.72-1.43.23-4.68-3-6.71-5.76C198.35,301.91,201.71,303.16,203.2,304.67Z" style="fill:#407BFF"></path><path d="M195.17,300.84a.56.56,0,0,0,.15.1c2.24.87,8.09,1.2,9.31-.48.29-.4.48-1.06-.26-2a3.22,3.22,0,0,0-2.21-1.18c-3-.31-6.79,2.78-7,2.91a.46.46,0,0,0-.15.4A.5.5,0,0,0,195.17,300.84Zm8.35-2,.17.19c.49.61.31.86.25.94-.74,1-5,1.08-7.53.43,1.18-.84,3.71-2.43,5.67-2.23A2.26,2.26,0,0,1,203.52,298.82Z" style="fill:#407BFF"></path><path d="M199.21,263.83l-8.62-5.05a85.52,85.52,0,0,0,8.49,15.93A89.2,89.2,0,0,0,199.21,263.83Z" style="opacity:0.2"></path><path d="M196.41,254.51c.51.52,1.24,1.2,1.9,1.81s1.36,1.23,2.07,1.83c1.43,1.19,2.85,2.39,4.35,3.49A73.83,73.83,0,0,0,214,267.7c.8.47,1.63.86,2.45,1.28l.58.29c.06,0,.08.07.15.09a1.77,1.77,0,0,0,.55.15,10.08,10.08,0,0,0,4.18-.57,55.59,55.59,0,0,0,10-4.56l.14-.07A2.36,2.36,0,0,1,235,268a37.41,37.41,0,0,1-10.18,7.82,16.8,16.8,0,0,1-7.33,2,10.21,10.21,0,0,1-2.39-.26,10.59,10.59,0,0,1-1.26-.38l-.77-.31c-1-.41-2-.79-2.93-1.25a69,69,0,0,1-10.94-6.33c-1.71-1.21-3.38-2.49-5-3.86-.8-.69-1.59-1.39-2.36-2.11s-1.5-1.43-2.35-2.35a4.73,4.73,0,0,1,6.8-6.58Z" style="fill:#b55b52"></path><path d="M236.32,258.17l-1.73,1a12.59,12.59,0,0,0-4.59,4.55l-1.62,2.75,2.59,4c4.87.25,7.64-4.06,7.64-4.06l2.07-1.63a2.34,2.34,0,0,0,.52-3.13l-1.74-2.69A2.35,2.35,0,0,0,236.32,258.17Z" style="fill:#b55b52"></path><path d="M167.11,226.35c2.78,7.42,4,11.91,9.18,14.58,7.78,4,16.49-2.41,16.09-10.53-.36-7.31-4.84-18.21-13.5-18.88S164.33,218.94,167.11,226.35Z" style="fill:#b55b52"></path><path d="M185.71,226.81s3.18,7-.5,10.95S171.93,242,169.6,240s-11.53-9.89-8-20.53,14.68-8.89,14.68-8.89c-.29-3.22,8.25-2.09,11.23.92s-3.74,5.63-3.74,5.63S190.47,220.31,185.71,226.81Z" style="fill:#263238"></path><path d="M158.43,212.77c-2.79-4.25-7.58-5.29-13-2.82-5.94,2.68-7.85,2.52-13.1,1,6.92,9.58,14.8,13.32,21.27,12.45A6.79,6.79,0,0,0,158.43,212.77Z" style="fill:#263238"></path><path d="M158.78,216.35c-2.13-2.92-2.67-4,1.89-4.49s4.34,1,3.1,3.93S160.08,218.15,158.78,216.35Z" style="fill:#407BFF"></path><path d="M161.28,223.39c-.81,3.44-1.29,4.58-5,2.48s-2.35-3.12.92-4.76S161.78,221.27,161.28,223.39Z" style="fill:#407BFF"></path><path d="M159.69,221.71c-2-.06-1.35-2.16-1.14-3s.3-2.09,2.33-2,2.28,1.05,2.24,1.89S163.19,221.81,159.69,221.71Z" style="fill:#407BFF"></path><path d="M180.93,225.81a8.79,8.79,0,0,0,4,3.92c2.3,1.06,3.49-.71,2.87-2.94-.55-2-2.42-5-4.75-5.11S179.89,223.72,180.93,225.81Z" style="fill:#b55b52"></path><path d="M156.85,298.1c-14.78,10.6-12.7,37.19-27.31,47.71-16.2,11.66,3.54,17.45,23.1,20.43,26.63,4.06,38.24,13.77,40.7,9.56,6.48-11.12,4.93-64.12,2.29-75.67C178,292.17,156.85,298.1,156.85,298.1Z" style="fill:#407BFF"></path><path d="M197.11,312.44c-7.45.38-28.74-2.38-43.56-11.43a33.64,33.64,0,0,0-5.85,9c18.53,10.33,43.25,11.4,49.91,11.48C197.48,318.26,197.31,315.21,197.11,312.44Z" style="fill:#fff"></path><path d="M197.9,333.42c-8,.59-37.88-2.85-54.24-13-1.27,3.73-2.5,7.48-4,11,22.06,10.14,51.1,11,58.16,11.09C197.91,339.51,197.92,336.45,197.9,333.42Z" style="fill:#fff"></path><path d="M129.54,345.82a26.47,26.47,0,0,0-2.43,1.95c21.56,11,60.63,16.44,69.14,17.51.46-3,.81-6.49,1.06-10.19-9.48-.3-39.77-5.78-61.34-16.28A25.16,25.16,0,0,1,129.54,345.82Z" style="fill:#fff"></path></g></svg>