<svg xmlns="http://www.w3.org/2000/svg" viewBox="0 0 500 500"><g id="freepik--background-complete--inject-474"><path d="M400.2,107.41H323.55s3.81-5,8-5.58c0,0,8.17-24.33,21.85-24.5,12.72-.17,17.82,15,17.82,15s5.89-6.79,11.52-3.69,8.81,12,8.81,12S397.91,104,400.2,107.41Z" style="fill:#ebebeb"></path><path d="M52.6,146.87h96.93s0-6.2-13.36-7.41c0,0-12.19-27.07-30.8-23.43-11.59,2.26-17.52,18.18-17.52,18.18s-8.76-12.53-15.76-10.1-11.17,15.75-11.17,15.75S53.69,143.37,52.6,146.87Z" style="fill:#ebebeb"></path><path d="M136.71,69.94h65.91s-6.22-5.79-9-5.79S182.81,44.72,172.5,45.54s-15.78,15.3-15.78,15.3S144.19,56.92,136.71,69.94Z" style="fill:#ebebeb"></path><path d="M183.39,125.31h56.36s-2.8-3.65-5.89-4.1c0,0-6-17.89-16.07-18-9.35-.12-13.1,11-13.1,11s-4.33-5-8.47-2.7-6.49,8.81-6.49,8.81S185.08,122.8,183.39,125.31Z" style="fill:#ebebeb"></path><path d="M391,178.13H447.4s-2.8-3.65-5.89-4.1c0,0-6-17.89-16.07-18-9.35-.12-13.1,11-13.1,11s-4.33-5-8.47-2.71-6.49,8.81-6.49,8.81S392.73,175.62,391,178.13Z" style="fill:#ebebeb"></path><rect x="278.79" y="206.09" width="31.77" height="166.52" style="fill:#dbdbdb"></rect><rect x="283.72" y="211.5" width="6.18" height="6.36" style="fill:#ebebeb"></rect><rect x="291.62" y="211.5" width="6.18" height="6.36" style="fill:#ebebeb"></rect><rect x="283.72" y="222.29" width="6.18" height="6.36" style="fill:#ebebeb"></rect><rect x="291.62" y="222.29" width="6.18" height="6.36" style="fill:#ebebeb"></rect><rect x="283.72" y="233.09" width="6.18" height="6.36" style="fill:#ebebeb"></rect><rect x="291.62" y="233.09" width="6.18" height="6.36" style="fill:#ebebeb"></rect><rect x="283.72" y="243.88" width="6.18" height="6.36" style="fill:#ebebeb"></rect><rect x="291.62" y="243.88" width="6.18" height="6.36" style="fill:#ebebeb"></rect><rect x="283.72" y="254.68" width="6.18" height="6.36" style="fill:#ebebeb"></rect><rect x="291.62" y="254.68" width="6.18" height="6.36" style="fill:#ebebeb"></rect><rect x="283.72" y="265.47" width="6.18" height="6.36" style="fill:#ebebeb"></rect><rect x="291.62" y="265.47" width="6.18" height="6.36" style="fill:#ebebeb"></rect><rect x="283.72" y="276.27" width="6.18" height="6.36" style="fill:#ebebeb"></rect><rect x="291.62" y="276.27" width="6.18" height="6.36" style="fill:#ebebeb"></rect><rect x="283.72" y="287.06" width="6.18" height="6.36" style="fill:#ebebeb"></rect><rect x="291.62" y="287.06" width="6.18" height="6.36" style="fill:#ebebeb"></rect><rect x="283.72" y="297.86" width="6.18" height="6.36" style="fill:#ebebeb"></rect><rect x="291.62" y="297.86" width="6.18" height="6.36" style="fill:#ebebeb"></rect><rect x="283.72" y="308.65" width="6.18" height="6.36" style="fill:#ebebeb"></rect><rect x="291.62" y="308.65" width="6.18" height="6.36" style="fill:#ebebeb"></rect><rect x="283.72" y="319.45" width="6.18" height="6.36" style="fill:#ebebeb"></rect><rect x="291.62" y="319.45" width="6.18" height="6.36" style="fill:#ebebeb"></rect><rect x="283.72" y="330.24" width="6.18" height="6.36" style="fill:#ebebeb"></rect><rect x="291.62" y="330.24" width="6.18" height="6.36" style="fill:#ebebeb"></rect><rect x="283.72" y="341.04" width="6.18" height="6.36" style="fill:#ebebeb"></rect><rect x="291.62" y="341.04" width="6.18" height="6.36" style="fill:#ebebeb"></rect><rect x="283.72" y="351.83" width="6.18" height="6.36" style="fill:#ebebeb"></rect><rect x="299.45" y="351.83" width="6.18" height="6.36" transform="translate(605.07 710.03) rotate(180)" style="fill:#ebebeb"></rect><rect x="299.45" y="341.04" width="6.18" height="6.36" transform="translate(605.07 688.44) rotate(180)" style="fill:#ebebeb"></rect><rect x="299.45" y="330.24" width="6.18" height="6.36" transform="translate(605.07 666.85) rotate(180)" style="fill:#ebebeb"></rect><rect x="299.45" y="319.45" width="6.18" height="6.36" transform="translate(605.07 645.26) rotate(180)" style="fill:#ebebeb"></rect><rect x="299.45" y="308.65" width="6.18" height="6.36" transform="translate(605.07 623.67) rotate(180)" style="fill:#ebebeb"></rect><rect x="299.45" y="297.86" width="6.18" height="6.36" transform="translate(605.07 602.08) rotate(180)" style="fill:#ebebeb"></rect><rect x="299.45" y="287.06" width="6.18" height="6.36" transform="translate(605.07 580.49) rotate(180)" style="fill:#ebebeb"></rect><rect x="299.45" y="276.27" width="6.18" height="6.36" transform="translate(605.07 558.9) rotate(180)" style="fill:#ebebeb"></rect><rect x="299.45" y="265.47" width="6.18" height="6.36" transform="translate(605.07 537.31) rotate(180)" style="fill:#ebebeb"></rect><rect x="299.45" y="254.68" width="6.18" height="6.36" transform="translate(605.07 515.72) rotate(180)" style="fill:#ebebeb"></rect><rect x="299.45" y="243.88" width="6.18" height="6.36" transform="translate(605.07 494.12) rotate(180)" style="fill:#ebebeb"></rect><rect x="299.45" y="233.09" width="6.18" height="6.36" transform="translate(605.07 472.53) rotate(180)" style="fill:#ebebeb"></rect><rect x="299.45" y="222.29" width="6.18" height="6.36" transform="translate(605.07 450.94) rotate(180)" style="fill:#ebebeb"></rect><rect x="299.45" y="211.5" width="6.18" height="6.36" transform="translate(605.07 429.35) rotate(180)" style="fill:#ebebeb"></rect><rect x="291.62" y="351.83" width="6.18" height="6.36" style="fill:#ebebeb"></rect><rect x="310.55" y="206.09" width="25.05" height="166.52" style="fill:#a6a6a6"></rect><rect x="327.92" y="351.83" width="5.1" height="6.36" transform="translate(660.94 710.03) rotate(180)" style="fill:#c7c7c7"></rect><rect x="321.4" y="351.83" width="5.1" height="6.36" transform="translate(647.89 710.03) rotate(180)" style="fill:#c7c7c7"></rect><rect x="327.92" y="341.04" width="5.1" height="6.36" transform="translate(660.94 688.44) rotate(180)" style="fill:#c7c7c7"></rect><rect x="321.4" y="341.04" width="5.1" height="6.36" transform="translate(647.89 688.44) rotate(180)" style="fill:#c7c7c7"></rect><rect x="327.92" y="330.24" width="5.1" height="6.36" transform="translate(660.94 666.85) rotate(180)" style="fill:#c7c7c7"></rect><rect x="321.4" y="330.24" width="5.1" height="6.36" transform="translate(647.89 666.85) rotate(180)" style="fill:#c7c7c7"></rect><rect x="327.92" y="319.45" width="5.1" height="6.36" transform="translate(660.94 645.26) rotate(180)" style="fill:#c7c7c7"></rect><rect x="321.4" y="319.45" width="5.1" height="6.36" transform="translate(647.89 645.26) rotate(180)" style="fill:#c7c7c7"></rect><rect x="327.92" y="308.65" width="5.1" height="6.36" transform="translate(660.94 623.67) rotate(180)" style="fill:#c7c7c7"></rect><rect x="321.4" y="308.65" width="5.1" height="6.36" transform="translate(647.89 623.67) rotate(180)" style="fill:#c7c7c7"></rect><rect x="327.92" y="297.86" width="5.1" height="6.36" transform="translate(660.94 602.08) rotate(180)" style="fill:#c7c7c7"></rect><rect x="321.4" y="297.86" width="5.1" height="6.36" transform="translate(647.89 602.08) rotate(180)" style="fill:#c7c7c7"></rect><rect x="327.92" y="287.06" width="5.1" height="6.36" transform="translate(660.94 580.49) rotate(180)" style="fill:#c7c7c7"></rect><rect x="321.4" y="287.06" width="5.1" height="6.36" transform="translate(647.89 580.49) rotate(180)" style="fill:#c7c7c7"></rect><rect x="327.92" y="276.27" width="5.1" height="6.36" transform="translate(660.94 558.9) rotate(180)" style="fill:#c7c7c7"></rect><rect x="321.4" y="276.27" width="5.1" height="6.36" transform="translate(647.89 558.9) rotate(180)" style="fill:#c7c7c7"></rect><rect x="327.92" y="265.47" width="5.1" height="6.36" transform="translate(660.94 537.31) rotate(180)" style="fill:#c7c7c7"></rect><rect x="321.4" y="265.47" width="5.1" height="6.36" transform="translate(647.89 537.31) rotate(180)" style="fill:#c7c7c7"></rect><rect x="327.92" y="254.68" width="5.1" height="6.36" transform="translate(660.94 515.72) rotate(180)" style="fill:#c7c7c7"></rect><rect x="321.4" y="254.68" width="5.1" height="6.36" transform="translate(647.89 515.72) rotate(180)" style="fill:#c7c7c7"></rect><rect x="327.92" y="243.88" width="5.1" height="6.36" transform="translate(660.94 494.12) rotate(180)" style="fill:#c7c7c7"></rect><rect x="321.4" y="243.88" width="5.1" height="6.36" transform="translate(647.89 494.12) rotate(180)" style="fill:#c7c7c7"></rect><rect x="327.92" y="233.09" width="5.1" height="6.36" transform="translate(660.94 472.53) rotate(180)" style="fill:#c7c7c7"></rect><rect x="321.4" y="233.09" width="5.1" height="6.36" transform="translate(647.89 472.53) rotate(180)" style="fill:#c7c7c7"></rect><rect x="327.92" y="222.29" width="5.1" height="6.36" transform="translate(660.94 450.94) rotate(180)" style="fill:#c7c7c7"></rect><rect x="321.4" y="222.29" width="5.1" height="6.36" transform="translate(647.89 450.94) rotate(180)" style="fill:#c7c7c7"></rect><rect x="327.92" y="211.5" width="5.1" height="6.36" transform="translate(660.94 429.35) rotate(180)" style="fill:#c7c7c7"></rect><rect x="314.93" y="211.5" width="5.1" height="6.36" style="fill:#c7c7c7"></rect><rect x="314.93" y="222.29" width="5.1" height="6.36" style="fill:#c7c7c7"></rect><rect x="314.93" y="233.09" width="5.1" height="6.36" style="fill:#c7c7c7"></rect><rect x="314.93" y="243.88" width="5.1" height="6.36" style="fill:#c7c7c7"></rect><rect x="314.93" y="254.68" width="5.1" height="6.36" style="fill:#c7c7c7"></rect><rect x="314.93" y="265.47" width="5.1" height="6.36" style="fill:#c7c7c7"></rect><rect x="314.93" y="276.27" width="5.1" height="6.36" style="fill:#c7c7c7"></rect><rect x="314.93" y="287.06" width="5.1" height="6.36" style="fill:#c7c7c7"></rect><rect x="314.93" y="297.86" width="5.1" height="6.36" style="fill:#c7c7c7"></rect><rect x="314.93" y="308.65" width="5.1" height="6.36" style="fill:#c7c7c7"></rect><rect x="314.93" y="319.45" width="5.1" height="6.36" style="fill:#c7c7c7"></rect><rect x="314.93" y="330.24" width="5.1" height="6.36" style="fill:#c7c7c7"></rect><rect x="314.93" y="341.04" width="5.1" height="6.36" style="fill:#c7c7c7"></rect><rect x="314.93" y="351.83" width="5.1" height="6.36" style="fill:#c7c7c7"></rect><rect x="321.4" y="211.5" width="5.1" height="6.36" transform="translate(647.89 429.35) rotate(180)" style="fill:#c7c7c7"></rect><rect x="147.83" y="197.11" width="37.58" height="175.5" style="fill:#ebebeb"></rect><rect x="146.93" y="193.27" width="38.48" height="3.84" style="fill:#c7c7c7"></rect><rect x="151.23" y="202.77" width="3.81" height="169.84" style="fill:#fff"></rect><rect x="157.97" y="202.77" width="3.81" height="169.84" style="fill:#fff"></rect><rect x="164.72" y="202.77" width="3.81" height="169.84" style="fill:#fff"></rect><rect x="171.46" y="202.77" width="3.81" height="169.84" style="fill:#fff"></rect><rect x="178.21" y="202.77" width="3.81" height="169.84" style="fill:#fff"></rect><rect x="151.23" y="207.63" width="3.81" height="7.58" style="fill:#ebebeb"></rect><rect x="157.97" y="207.63" width="3.81" height="7.58" style="fill:#ebebeb"></rect><rect x="164.72" y="207.63" width="3.81" height="7.58" style="fill:#ebebeb"></rect><rect x="171.46" y="207.63" width="3.81" height="7.58" style="fill:#ebebeb"></rect><rect x="178.21" y="207.63" width="3.81" height="7.58" style="fill:#ebebeb"></rect><rect x="151.23" y="219.96" width="3.81" height="7.59" style="fill:#ebebeb"></rect><rect x="157.97" y="219.96" width="3.81" height="7.59" style="fill:#ebebeb"></rect><rect x="164.72" y="219.96" width="3.81" height="7.59" style="fill:#ebebeb"></rect><rect x="171.46" y="219.96" width="3.81" height="7.59" style="fill:#ebebeb"></rect><rect x="178.21" y="219.96" width="3.81" height="7.59" style="fill:#ebebeb"></rect><rect x="151.23" y="232.28" width="3.81" height="7.58" style="fill:#ebebeb"></rect><rect x="157.97" y="232.28" width="3.81" height="7.58" style="fill:#ebebeb"></rect><rect x="164.72" y="232.28" width="3.81" height="7.58" style="fill:#ebebeb"></rect><rect x="171.46" y="232.28" width="3.81" height="7.58" style="fill:#ebebeb"></rect><rect x="178.21" y="232.28" width="3.81" height="7.58" style="fill:#ebebeb"></rect><rect x="151.23" y="244.61" width="3.81" height="7.58" style="fill:#ebebeb"></rect><rect x="157.97" y="244.61" width="3.81" height="7.58" style="fill:#ebebeb"></rect><rect x="164.72" y="244.61" width="3.81" height="7.58" style="fill:#ebebeb"></rect><rect x="171.46" y="244.61" width="3.81" height="7.58" style="fill:#ebebeb"></rect><rect x="178.21" y="244.61" width="3.81" height="7.58" style="fill:#ebebeb"></rect><rect x="151.23" y="256.94" width="3.81" height="7.58" style="fill:#ebebeb"></rect><rect x="157.97" y="256.94" width="3.81" height="7.58" style="fill:#ebebeb"></rect><rect x="164.72" y="256.94" width="3.81" height="7.58" style="fill:#ebebeb"></rect><rect x="171.46" y="256.94" width="3.81" height="7.58" style="fill:#ebebeb"></rect><rect x="178.21" y="256.94" width="3.81" height="7.58" style="fill:#ebebeb"></rect><rect x="151.23" y="269.26" width="3.81" height="7.59" style="fill:#ebebeb"></rect><rect x="157.97" y="269.26" width="3.81" height="7.59" style="fill:#ebebeb"></rect><rect x="164.72" y="269.26" width="3.81" height="7.59" style="fill:#ebebeb"></rect><rect x="171.46" y="269.26" width="3.81" height="7.59" style="fill:#ebebeb"></rect><rect x="178.21" y="269.26" width="3.81" height="7.59" style="fill:#ebebeb"></rect><rect x="151.23" y="281.59" width="3.81" height="7.59" style="fill:#ebebeb"></rect><rect x="157.97" y="281.59" width="3.81" height="7.59" style="fill:#ebebeb"></rect><rect x="164.72" y="281.59" width="3.81" height="7.59" style="fill:#ebebeb"></rect><rect x="171.46" y="281.59" width="3.81" height="7.59" style="fill:#ebebeb"></rect><rect x="178.21" y="281.59" width="3.81" height="7.59" style="fill:#ebebeb"></rect><rect x="151.23" y="293.92" width="3.81" height="7.59" style="fill:#ebebeb"></rect><rect x="157.97" y="293.92" width="3.81" height="7.59" style="fill:#ebebeb"></rect><rect x="164.72" y="293.92" width="3.81" height="7.59" style="fill:#ebebeb"></rect><rect x="171.46" y="293.92" width="3.81" height="7.59" style="fill:#ebebeb"></rect><rect x="178.21" y="293.92" width="3.81" height="7.59" style="fill:#ebebeb"></rect><rect x="151.23" y="306.25" width="3.81" height="7.58" style="fill:#ebebeb"></rect><rect x="157.97" y="306.25" width="3.81" height="7.58" style="fill:#ebebeb"></rect><rect x="164.72" y="306.25" width="3.81" height="7.58" style="fill:#ebebeb"></rect><rect x="171.46" y="306.25" width="3.81" height="7.58" style="fill:#ebebeb"></rect><rect x="178.21" y="306.25" width="3.81" height="7.58" style="fill:#ebebeb"></rect><rect x="151.23" y="318.57" width="3.81" height="7.58" style="fill:#ebebeb"></rect><rect x="157.97" y="318.57" width="3.81" height="7.58" style="fill:#ebebeb"></rect><rect x="164.72" y="318.57" width="3.81" height="7.58" style="fill:#ebebeb"></rect><rect x="171.46" y="318.57" width="3.81" height="7.58" style="fill:#ebebeb"></rect><rect x="178.21" y="318.57" width="3.81" height="7.58" style="fill:#ebebeb"></rect><rect x="151.23" y="330.9" width="3.81" height="7.58" style="fill:#ebebeb"></rect><rect x="157.97" y="330.9" width="3.81" height="7.58" style="fill:#ebebeb"></rect><rect x="164.72" y="330.9" width="3.81" height="7.58" style="fill:#ebebeb"></rect><rect x="171.46" y="330.9" width="3.81" height="7.58" style="fill:#ebebeb"></rect><rect x="178.21" y="330.9" width="3.81" height="7.58" style="fill:#ebebeb"></rect><rect x="151.23" y="343.23" width="3.81" height="7.58" style="fill:#ebebeb"></rect><rect x="157.97" y="343.23" width="3.81" height="7.58" style="fill:#ebebeb"></rect><rect x="164.72" y="343.23" width="3.81" height="7.58" style="fill:#ebebeb"></rect><rect x="171.46" y="343.23" width="3.81" height="7.58" style="fill:#ebebeb"></rect><rect x="178.21" y="343.23" width="3.81" height="7.58" style="fill:#ebebeb"></rect><rect x="151.23" y="355.56" width="3.81" height="7.58" style="fill:#ebebeb"></rect><rect x="157.97" y="355.56" width="3.81" height="7.58" style="fill:#ebebeb"></rect><rect x="164.72" y="355.56" width="3.81" height="7.58" style="fill:#ebebeb"></rect><rect x="171.46" y="355.56" width="3.81" height="7.58" style="fill:#ebebeb"></rect><rect x="178.21" y="355.56" width="3.81" height="7.58" style="fill:#ebebeb"></rect><rect x="151.23" y="367.88" width="3.81" height="4.73" style="fill:#ebebeb"></rect><rect x="157.97" y="367.88" width="3.81" height="4.73" style="fill:#ebebeb"></rect><rect x="164.72" y="367.88" width="3.81" height="4.73" style="fill:#ebebeb"></rect><rect x="171.46" y="367.88" width="3.81" height="4.73" style="fill:#ebebeb"></rect><rect x="178.21" y="367.88" width="3.81" height="4.73" style="fill:#ebebeb"></rect><rect x="185.41" y="197.11" width="24.13" height="175.5" style="fill:#dbdbdb"></rect><rect x="185.41" y="193.27" width="25.17" height="3.84" style="fill:#c7c7c7"></rect><rect x="188.81" y="202.77" width="3.81" height="169.84" style="fill:#c7c7c7"></rect><rect x="195.55" y="202.77" width="3.81" height="169.84" style="fill:#c7c7c7"></rect><rect x="202.3" y="202.77" width="3.81" height="169.84" style="fill:#c7c7c7"></rect><rect x="188.81" y="207.63" width="3.81" height="7.58" style="fill:#dbdbdb"></rect><rect x="195.55" y="207.63" width="3.81" height="7.58" style="fill:#dbdbdb"></rect><rect x="202.3" y="207.63" width="3.81" height="7.58" style="fill:#dbdbdb"></rect><rect x="188.81" y="219.96" width="3.81" height="7.59" style="fill:#dbdbdb"></rect><rect x="195.55" y="219.96" width="3.81" height="7.59" style="fill:#dbdbdb"></rect><rect x="202.3" y="219.96" width="3.81" height="7.59" style="fill:#dbdbdb"></rect><rect x="188.81" y="232.28" width="3.81" height="7.58" style="fill:#dbdbdb"></rect><rect x="195.55" y="232.28" width="3.81" height="7.58" style="fill:#dbdbdb"></rect><rect x="202.3" y="232.28" width="3.81" height="7.58" style="fill:#dbdbdb"></rect><rect x="188.81" y="244.61" width="3.81" height="7.58" style="fill:#dbdbdb"></rect><rect x="195.55" y="244.61" width="3.81" height="7.58" style="fill:#dbdbdb"></rect><rect x="202.3" y="244.61" width="3.81" height="7.58" style="fill:#dbdbdb"></rect><rect x="188.81" y="256.94" width="3.81" height="7.58" style="fill:#dbdbdb"></rect><rect x="195.55" y="256.94" width="3.81" height="7.58" style="fill:#dbdbdb"></rect><rect x="202.3" y="256.94" width="3.81" height="7.58" style="fill:#dbdbdb"></rect><rect x="188.81" y="269.26" width="3.81" height="7.59" style="fill:#dbdbdb"></rect><rect x="195.55" y="269.26" width="3.81" height="7.59" style="fill:#dbdbdb"></rect><rect x="202.3" y="269.26" width="3.81" height="7.59" style="fill:#dbdbdb"></rect><rect x="188.81" y="281.59" width="3.81" height="7.59" style="fill:#dbdbdb"></rect><rect x="195.55" y="281.59" width="3.81" height="7.59" style="fill:#dbdbdb"></rect><rect x="202.3" y="281.59" width="3.81" height="7.59" style="fill:#dbdbdb"></rect><rect x="188.81" y="293.92" width="3.81" height="7.59" style="fill:#dbdbdb"></rect><rect x="195.55" y="293.92" width="3.81" height="7.59" style="fill:#dbdbdb"></rect><rect x="202.3" y="293.92" width="3.81" height="7.59" style="fill:#dbdbdb"></rect><rect x="188.81" y="306.25" width="3.81" height="7.58" style="fill:#dbdbdb"></rect><rect x="195.55" y="306.25" width="3.81" height="7.58" style="fill:#dbdbdb"></rect><rect x="202.3" y="306.25" width="3.81" height="7.58" style="fill:#dbdbdb"></rect><rect x="188.81" y="318.57" width="3.81" height="7.58" style="fill:#dbdbdb"></rect><rect x="195.55" y="318.57" width="3.81" height="7.58" style="fill:#dbdbdb"></rect><rect x="202.3" y="318.57" width="3.81" height="7.58" style="fill:#dbdbdb"></rect><rect x="188.81" y="330.9" width="3.81" height="7.58" style="fill:#dbdbdb"></rect><rect x="195.55" y="330.9" width="3.81" height="7.58" style="fill:#dbdbdb"></rect><rect x="202.3" y="330.9" width="3.81" height="7.58" style="fill:#dbdbdb"></rect><rect x="188.81" y="343.23" width="3.81" height="7.58" style="fill:#dbdbdb"></rect><rect x="195.55" y="343.23" width="3.81" height="7.58" style="fill:#dbdbdb"></rect><rect x="202.3" y="343.23" width="3.81" height="7.58" style="fill:#dbdbdb"></rect><rect x="188.81" y="355.56" width="3.81" height="7.58" style="fill:#dbdbdb"></rect><rect x="195.55" y="355.56" width="3.81" height="7.58" style="fill:#dbdbdb"></rect><rect x="202.3" y="355.56" width="3.81" height="7.58" style="fill:#dbdbdb"></rect><rect x="188.81" y="367.88" width="3.81" height="4.73" style="fill:#dbdbdb"></rect><rect x="195.55" y="367.88" width="3.81" height="4.73" style="fill:#dbdbdb"></rect><rect x="202.3" y="367.88" width="3.81" height="4.73" style="fill:#dbdbdb"></rect><rect x="55.81" y="261.61" width="37.42" height="111" style="fill:#ebebeb"></rect><rect x="61.14" y="252.2" width="32.1" height="9.41" style="fill:#c7c7c7"></rect><rect x="59.92" y="266.52" width="29.21" height="106.09" style="fill:#dbdbdb"></rect><rect x="59.92" y="276.64" width="29.21" height="2.51" style="fill:#fff"></rect><rect x="59.92" y="287.03" width="29.21" height="2.51" style="fill:#fff"></rect><rect x="59.92" y="297.41" width="29.21" height="2.51" style="fill:#fff"></rect><rect x="59.92" y="307.8" width="29.21" height="2.51" style="fill:#fff"></rect><rect x="59.92" y="318.18" width="29.21" height="2.51" style="fill:#fff"></rect><rect x="59.92" y="328.57" width="29.21" height="2.51" style="fill:#fff"></rect><rect x="59.92" y="338.95" width="29.21" height="2.51" style="fill:#fff"></rect><rect x="59.92" y="349.34" width="29.21" height="2.51" style="fill:#fff"></rect><rect x="59.92" y="359.72" width="29.21" height="2.51" style="fill:#fff"></rect><rect x="59.92" y="370.1" width="29.21" height="2.51" style="fill:#fff"></rect><rect x="93.23" y="261.61" width="23.44" height="111" style="fill:#dbdbdb"></rect><rect x="93.23" y="252.2" width="19.92" height="9.41" style="fill:#a6a6a6"></rect><rect x="96.47" y="266.52" width="18.02" height="106.09" style="fill:#c7c7c7"></rect><rect x="96.47" y="276.64" width="18.02" height="2.51" style="fill:#fff"></rect><rect x="96.47" y="287.03" width="18.02" height="2.51" style="fill:#fff"></rect><rect x="96.47" y="297.41" width="18.02" height="2.51" style="fill:#fff"></rect><rect x="96.47" y="307.8" width="18.02" height="2.51" style="fill:#fff"></rect><rect x="96.47" y="318.18" width="18.02" height="2.51" style="fill:#fff"></rect><rect x="96.47" y="328.57" width="18.02" height="2.51" style="fill:#fff"></rect><rect x="96.47" y="338.95" width="18.02" height="2.51" style="fill:#fff"></rect><rect x="96.47" y="349.34" width="18.02" height="2.51" style="fill:#fff"></rect><rect x="96.47" y="359.72" width="18.02" height="2.51" style="fill:#fff"></rect><rect x="96.47" y="370.1" width="18.02" height="2.51" style="fill:#fff"></rect><rect x="339.23" y="307.63" width="28.93" height="64.98" style="fill:#dbdbdb"></rect><rect x="343.77" y="313.25" width="5.12" height="3.98" style="fill:#c7c7c7"></rect><rect x="343.77" y="321.76" width="5.12" height="3.98" style="fill:#c7c7c7"></rect><rect x="343.77" y="330.26" width="5.12" height="3.98" style="fill:#c7c7c7"></rect><rect x="343.77" y="338.76" width="5.12" height="3.98" style="fill:#c7c7c7"></rect><rect x="343.77" y="347.27" width="5.12" height="3.98" style="fill:#c7c7c7"></rect><rect x="343.77" y="355.77" width="5.12" height="3.98" style="fill:#c7c7c7"></rect><rect x="343.77" y="364.28" width="5.12" height="3.98" style="fill:#c7c7c7"></rect><rect x="351.14" y="313.25" width="5.12" height="3.98" style="fill:#c7c7c7"></rect><rect x="351.14" y="321.76" width="5.12" height="3.98" style="fill:#c7c7c7"></rect><rect x="351.14" y="330.26" width="5.12" height="3.98" style="fill:#c7c7c7"></rect><rect x="351.14" y="338.76" width="5.12" height="3.98" style="fill:#c7c7c7"></rect><rect x="351.14" y="347.27" width="5.12" height="3.98" style="fill:#c7c7c7"></rect><rect x="351.14" y="355.77" width="5.12" height="3.98" style="fill:#c7c7c7"></rect><rect x="351.14" y="364.28" width="5.12" height="3.98" style="fill:#c7c7c7"></rect><rect x="358.49" y="313.25" width="5.12" height="3.98" style="fill:#c7c7c7"></rect><rect x="358.49" y="321.76" width="5.12" height="3.98" style="fill:#c7c7c7"></rect><rect x="358.49" y="330.26" width="5.12" height="3.98" style="fill:#c7c7c7"></rect><rect x="358.49" y="338.76" width="5.12" height="3.98" style="fill:#c7c7c7"></rect><rect x="358.49" y="347.27" width="5.12" height="3.98" style="fill:#c7c7c7"></rect><rect x="358.49" y="355.77" width="5.12" height="3.98" style="fill:#c7c7c7"></rect><rect x="358.49" y="364.28" width="5.12" height="3.98" style="fill:#c7c7c7"></rect><rect x="368.15" y="307.63" width="20.3" height="64.98" style="fill:#a6a6a6"></rect><rect x="382.2" y="363.64" width="4.17" height="3.98" transform="translate(768.58 731.26) rotate(180)" style="fill:#c7c7c7"></rect><rect x="382.2" y="355.14" width="4.17" height="3.98" transform="translate(768.58 714.25) rotate(180)" style="fill:#c7c7c7"></rect><rect x="382.2" y="346.63" width="4.17" height="3.98" transform="translate(768.58 697.25) rotate(180)" style="fill:#c7c7c7"></rect><rect x="382.2" y="338.13" width="4.17" height="3.98" transform="translate(768.58 680.24) rotate(180)" style="fill:#c7c7c7"></rect><rect x="382.2" y="329.63" width="4.17" height="3.98" transform="translate(768.58 663.23) rotate(180)" style="fill:#c7c7c7"></rect><rect x="382.2" y="321.12" width="4.17" height="3.98" transform="translate(768.58 646.22) rotate(180)" style="fill:#c7c7c7"></rect><rect x="382.2" y="312.62" width="4.17" height="3.98" transform="translate(768.58 629.22) rotate(180)" style="fill:#c7c7c7"></rect><rect x="376.21" y="363.64" width="4.17" height="3.98" transform="translate(756.59 731.26) rotate(180)" style="fill:#c7c7c7"></rect><rect x="376.21" y="355.14" width="4.17" height="3.98" transform="translate(756.59 714.25) rotate(180)" style="fill:#c7c7c7"></rect><rect x="376.21" y="346.63" width="4.17" height="3.98" transform="translate(756.59 697.25) rotate(180)" style="fill:#c7c7c7"></rect><rect x="376.21" y="338.13" width="4.17" height="3.98" transform="translate(756.59 680.24) rotate(180)" style="fill:#c7c7c7"></rect><rect x="376.21" y="329.63" width="4.17" height="3.98" transform="translate(756.59 663.23) rotate(180)" style="fill:#c7c7c7"></rect><rect x="376.21" y="321.12" width="4.17" height="3.98" transform="translate(756.59 646.22) rotate(180)" style="fill:#c7c7c7"></rect><rect x="376.21" y="312.62" width="4.17" height="3.98" transform="translate(756.59 629.22) rotate(180)" style="fill:#c7c7c7"></rect><rect x="370.23" y="363.64" width="4.17" height="3.98" transform="translate(744.63 731.26) rotate(180)" style="fill:#c7c7c7"></rect><rect x="370.23" y="355.14" width="4.17" height="3.98" transform="translate(744.63 714.25) rotate(180)" style="fill:#c7c7c7"></rect><rect x="370.23" y="346.63" width="4.17" height="3.98" transform="translate(744.63 697.25) rotate(180)" style="fill:#c7c7c7"></rect><rect x="370.23" y="338.13" width="4.17" height="3.98" transform="translate(744.63 680.24) rotate(180)" style="fill:#c7c7c7"></rect><rect x="370.23" y="329.63" width="4.17" height="3.98" transform="translate(744.63 663.23) rotate(180)" style="fill:#c7c7c7"></rect><rect x="370.23" y="321.12" width="4.17" height="3.98" transform="translate(744.63 646.22) rotate(180)" style="fill:#c7c7c7"></rect><rect x="370.23" y="312.62" width="4.17" height="3.98" transform="translate(744.63 629.22) rotate(180)" style="fill:#c7c7c7"></rect><rect x="393.35" y="233.09" width="19.99" height="23.61" style="fill:#dbdbdb"></rect><rect x="413.33" y="233.09" width="12.67" height="24.47" style="fill:#c7c7c7"></rect><rect x="414.27" y="243.51" width="12.58" height="14.05" style="fill:#dbdbdb"></rect><rect x="426.85" y="243.51" width="7.84" height="14.05" style="fill:#c7c7c7"></rect><rect x="385.68" y="255.16" width="32.32" height="117.45" style="fill:#ebebeb"></rect><rect x="389.38" y="260.21" width="10.16" height="4.15" style="fill:#fff"></rect><rect x="402.38" y="260.21" width="10.16" height="4.15" style="fill:#fff"></rect><rect x="389.38" y="267.26" width="10.16" height="4.15" style="fill:#fff"></rect><rect x="402.38" y="267.26" width="10.16" height="4.15" style="fill:#fff"></rect><rect x="389.38" y="274.31" width="10.16" height="4.15" style="fill:#fff"></rect><rect x="402.38" y="274.31" width="10.16" height="4.15" style="fill:#fff"></rect><rect x="389.38" y="281.36" width="10.16" height="4.15" style="fill:#fff"></rect><rect x="402.38" y="281.36" width="10.16" height="4.15" style="fill:#fff"></rect><rect x="389.38" y="288.41" width="10.16" height="4.15" style="fill:#fff"></rect><rect x="402.38" y="288.41" width="10.16" height="4.15" style="fill:#fff"></rect><rect x="389.38" y="295.46" width="10.16" height="4.15" style="fill:#fff"></rect><rect x="402.38" y="295.46" width="10.16" height="4.15" style="fill:#fff"></rect><rect x="389.38" y="302.51" width="10.16" height="4.15" style="fill:#fff"></rect><rect x="402.38" y="302.51" width="10.16" height="4.15" style="fill:#fff"></rect><rect x="389.38" y="309.56" width="10.16" height="4.15" style="fill:#fff"></rect><rect x="402.38" y="309.56" width="10.16" height="4.15" style="fill:#fff"></rect><rect x="389.38" y="316.61" width="10.16" height="4.15" style="fill:#fff"></rect><rect x="402.38" y="316.61" width="10.16" height="4.15" style="fill:#fff"></rect><rect x="389.38" y="323.66" width="10.16" height="4.15" style="fill:#fff"></rect><rect x="402.38" y="323.66" width="10.16" height="4.15" style="fill:#fff"></rect><rect x="389.38" y="330.71" width="10.16" height="4.15" style="fill:#fff"></rect><rect x="402.38" y="330.71" width="10.16" height="4.15" style="fill:#fff"></rect><rect x="389.38" y="337.76" width="10.16" height="4.15" style="fill:#fff"></rect><rect x="402.38" y="337.76" width="10.16" height="4.15" style="fill:#fff"></rect><rect x="389.38" y="344.81" width="10.16" height="4.15" style="fill:#fff"></rect><rect x="402.38" y="344.81" width="10.16" height="4.15" style="fill:#fff"></rect><rect x="389.38" y="351.86" width="10.16" height="4.15" style="fill:#fff"></rect><rect x="402.38" y="351.86" width="10.16" height="4.15" style="fill:#fff"></rect><rect x="418" y="255.16" width="26.19" height="117.45" style="fill:#c7c7c7"></rect><rect x="433.22" y="351.86" width="8.34" height="4.15" transform="translate(874.78 707.87) rotate(180)" style="fill:#ebebeb"></rect><rect x="422.54" y="351.86" width="8.34" height="4.15" transform="translate(853.43 707.87) rotate(180)" style="fill:#ebebeb"></rect><rect x="433.22" y="344.81" width="8.34" height="4.15" transform="translate(874.78 693.77) rotate(180)" style="fill:#ebebeb"></rect><rect x="422.54" y="344.81" width="8.34" height="4.15" transform="translate(853.43 693.77) rotate(180)" style="fill:#ebebeb"></rect><rect x="433.22" y="337.76" width="8.34" height="4.15" transform="translate(874.78 679.67) rotate(180)" style="fill:#ebebeb"></rect><rect x="422.54" y="337.76" width="8.34" height="4.15" transform="translate(853.43 679.67) rotate(180)" style="fill:#ebebeb"></rect><rect x="433.22" y="330.71" width="8.34" height="4.15" transform="translate(874.78 665.57) rotate(180)" style="fill:#ebebeb"></rect><rect x="422.54" y="330.71" width="8.34" height="4.15" transform="translate(853.43 665.57) rotate(180)" style="fill:#ebebeb"></rect><rect x="433.22" y="323.66" width="8.34" height="4.15" transform="translate(874.78 651.47) rotate(180)" style="fill:#ebebeb"></rect><rect x="422.54" y="323.66" width="8.34" height="4.15" transform="translate(853.43 651.47) rotate(180)" style="fill:#ebebeb"></rect><rect x="433.22" y="316.61" width="8.34" height="4.15" transform="translate(874.78 637.37) rotate(180)" style="fill:#ebebeb"></rect><rect x="422.54" y="316.61" width="8.34" height="4.15" transform="translate(853.43 637.37) rotate(180)" style="fill:#ebebeb"></rect><rect x="433.22" y="309.56" width="8.34" height="4.15" transform="translate(874.78 623.27) rotate(180)" style="fill:#ebebeb"></rect><rect x="422.54" y="309.56" width="8.34" height="4.15" transform="translate(853.43 623.27) rotate(180)" style="fill:#ebebeb"></rect><rect x="433.22" y="302.51" width="8.34" height="4.15" transform="translate(874.78 609.17) rotate(180)" style="fill:#ebebeb"></rect><rect x="422.54" y="302.51" width="8.34" height="4.15" transform="translate(853.43 609.17) rotate(180)" style="fill:#ebebeb"></rect><rect x="433.22" y="295.46" width="8.34" height="4.15" transform="translate(874.78 595.07) rotate(180)" style="fill:#ebebeb"></rect><rect x="422.54" y="295.46" width="8.34" height="4.15" transform="translate(853.43 595.07) rotate(180)" style="fill:#ebebeb"></rect><rect x="433.22" y="288.41" width="8.34" height="4.15" transform="translate(874.78 580.97) rotate(180)" style="fill:#ebebeb"></rect><rect x="422.54" y="288.41" width="8.34" height="4.15" transform="translate(853.43 580.97) rotate(180)" style="fill:#ebebeb"></rect><rect x="433.22" y="281.36" width="8.34" height="4.15" transform="translate(874.78 566.87) rotate(180)" style="fill:#ebebeb"></rect><rect x="422.54" y="281.36" width="8.34" height="4.15" transform="translate(853.43 566.87) rotate(180)" style="fill:#ebebeb"></rect><rect x="433.22" y="274.31" width="8.34" height="4.15" transform="translate(874.78 552.77) rotate(180)" style="fill:#ebebeb"></rect><rect x="422.54" y="274.31" width="8.34" height="4.15" transform="translate(853.43 552.77) rotate(180)" style="fill:#ebebeb"></rect><rect x="433.22" y="267.26" width="8.34" height="4.15" transform="translate(874.78 538.67) rotate(180)" style="fill:#ebebeb"></rect><rect x="422.54" y="267.26" width="8.34" height="4.15" transform="translate(853.43 538.67) rotate(180)" style="fill:#ebebeb"></rect><rect x="433.22" y="260.21" width="8.34" height="4.15" transform="translate(874.78 524.57) rotate(180)" style="fill:#ebebeb"></rect><rect x="422.54" y="260.21" width="8.34" height="4.15" transform="translate(853.43 524.57) rotate(180)" style="fill:#ebebeb"></rect><rect x="108" y="296.08" width="38.12" height="76.53" style="fill:#c7c7c7"></rect><rect x="113.99" y="302.7" width="6.75" height="4.69" style="fill:#dbdbdb"></rect><rect x="113.99" y="312.72" width="6.75" height="4.69" style="fill:#dbdbdb"></rect><rect x="113.99" y="322.73" width="6.75" height="4.69" style="fill:#dbdbdb"></rect><rect x="113.99" y="332.75" width="6.75" height="4.69" style="fill:#dbdbdb"></rect><rect x="113.99" y="342.76" width="6.75" height="4.69" style="fill:#dbdbdb"></rect><rect x="113.99" y="352.78" width="6.75" height="4.69" style="fill:#dbdbdb"></rect><rect x="113.99" y="362.79" width="6.75" height="4.69" style="fill:#dbdbdb"></rect><rect x="123.7" y="302.7" width="6.75" height="4.69" style="fill:#dbdbdb"></rect><rect x="123.7" y="312.72" width="6.75" height="4.69" style="fill:#dbdbdb"></rect><rect x="123.7" y="322.73" width="6.75" height="4.69" style="fill:#dbdbdb"></rect><rect x="123.7" y="332.75" width="6.75" height="4.69" style="fill:#dbdbdb"></rect><rect x="123.7" y="342.76" width="6.75" height="4.69" style="fill:#dbdbdb"></rect><rect x="123.7" y="352.78" width="6.75" height="4.69" style="fill:#dbdbdb"></rect><rect x="123.7" y="362.79" width="6.75" height="4.69" style="fill:#dbdbdb"></rect><rect x="133.38" y="302.7" width="6.75" height="4.69" style="fill:#dbdbdb"></rect><rect x="133.38" y="312.72" width="6.75" height="4.69" style="fill:#dbdbdb"></rect><rect x="133.38" y="322.73" width="6.75" height="4.69" style="fill:#dbdbdb"></rect><rect x="133.38" y="332.75" width="6.75" height="4.69" style="fill:#dbdbdb"></rect><rect x="133.38" y="342.76" width="6.75" height="4.69" style="fill:#dbdbdb"></rect><rect x="133.38" y="352.78" width="6.75" height="4.69" style="fill:#dbdbdb"></rect><rect x="133.38" y="362.79" width="6.75" height="4.69" style="fill:#dbdbdb"></rect><rect x="120.74" y="288.11" width="25.38" height="7.97" style="fill:#dbdbdb"></rect><rect x="130.03" y="283.17" width="16.09" height="4.94" style="fill:#ebebeb"></rect><rect x="146.12" y="296.08" width="26.74" height="76.53" style="fill:#a6a6a6"></rect><rect x="164.63" y="362.05" width="5.49" height="4.69" transform="translate(334.76 728.78) rotate(180)" style="fill:#c7c7c7"></rect><rect x="164.63" y="352.03" width="5.49" height="4.69" transform="translate(334.76 708.75) rotate(180)" style="fill:#c7c7c7"></rect><rect x="164.63" y="342.02" width="5.49" height="4.69" transform="translate(334.76 688.72) rotate(180)" style="fill:#c7c7c7"></rect><rect x="164.63" y="332" width="5.49" height="4.69" transform="translate(334.76 668.69) rotate(180)" style="fill:#c7c7c7"></rect><rect x="164.63" y="321.99" width="5.49" height="4.69" transform="translate(334.76 648.66) rotate(180)" style="fill:#c7c7c7"></rect><rect x="164.63" y="311.97" width="5.49" height="4.69" transform="translate(334.76 628.63) rotate(180)" style="fill:#c7c7c7"></rect><rect x="164.63" y="301.96" width="5.49" height="4.69" transform="translate(334.76 608.6) rotate(180)" style="fill:#c7c7c7"></rect><rect x="156.73" y="362.05" width="5.49" height="4.69" transform="translate(318.96 728.78) rotate(180)" style="fill:#c7c7c7"></rect><rect x="156.73" y="352.03" width="5.49" height="4.69" transform="translate(318.96 708.75) rotate(180)" style="fill:#c7c7c7"></rect><rect x="156.73" y="342.02" width="5.49" height="4.69" transform="translate(318.96 688.72) rotate(180)" style="fill:#c7c7c7"></rect><rect x="156.73" y="332" width="5.49" height="4.69" transform="translate(318.96 668.69) rotate(180)" style="fill:#c7c7c7"></rect><rect x="156.73" y="321.99" width="5.49" height="4.69" transform="translate(318.96 648.66) rotate(180)" style="fill:#c7c7c7"></rect><rect x="156.73" y="311.97" width="5.49" height="4.69" transform="translate(318.96 628.63) rotate(180)" style="fill:#c7c7c7"></rect><rect x="156.73" y="301.96" width="5.49" height="4.69" transform="translate(318.96 608.6) rotate(180)" style="fill:#c7c7c7"></rect><rect x="148.85" y="362.05" width="5.49" height="4.69" transform="translate(303.2 728.78) rotate(180)" style="fill:#c7c7c7"></rect><rect x="148.85" y="352.03" width="5.49" height="4.69" transform="translate(303.2 708.75) rotate(180)" style="fill:#c7c7c7"></rect><rect x="148.85" y="342.02" width="5.49" height="4.69" transform="translate(303.2 688.72) rotate(180)" style="fill:#c7c7c7"></rect><rect x="148.85" y="332" width="5.49" height="4.69" transform="translate(303.2 668.69) rotate(180)" style="fill:#c7c7c7"></rect><rect x="148.85" y="321.99" width="5.49" height="4.69" transform="translate(303.2 648.66) rotate(180)" style="fill:#c7c7c7"></rect><rect x="148.85" y="311.97" width="5.49" height="4.69" transform="translate(303.2 628.63) rotate(180)" style="fill:#c7c7c7"></rect><rect x="148.85" y="301.96" width="5.49" height="4.69" transform="translate(303.2 608.6) rotate(180)" style="fill:#c7c7c7"></rect><rect x="146.12" y="288.11" width="22.69" height="7.97" style="fill:#c7c7c7"></rect><rect x="146.12" y="283.17" width="12.3" height="4.94" style="fill:#dbdbdb"></rect></g><g id="freepik--Shadow--inject-474"><ellipse cx="234.52" cy="452.98" rx="173.38" ry="8.08" style="fill:#ebebeb"></ellipse></g><g id="freepik--Floor--inject-474"><rect x="37.86" y="372.58" width="424.28" height="6.8" style="fill:#c7c7c7"></rect><path d="M67.6,372.58a11.59,11.59,0,0,1,0,6.8,10.27,10.27,0,0,1-.5-3.4A10.78,10.78,0,0,1,67.6,372.58Z" style="fill:#263238"></path><path d="M100.77,372.58a10.78,10.78,0,0,1,.5,3.4,10.27,10.27,0,0,1-.5,3.4,11.59,11.59,0,0,1,0-6.8Z" style="fill:#263238"></path><path d="M133.93,372.58a11.81,11.81,0,0,1,0,6.8,11.81,11.81,0,0,1,0-6.8Z" style="fill:#263238"></path><path d="M167.09,372.58a11.59,11.59,0,0,1,0,6.8,10.27,10.27,0,0,1-.5-3.4A10.5,10.5,0,0,1,167.09,372.58Z" style="fill:#263238"></path><path d="M200.26,372.58a10.78,10.78,0,0,1,.5,3.4,10.27,10.27,0,0,1-.5,3.4,11.59,11.59,0,0,1,0-6.8Z" style="fill:#263238"></path><path d="M233.42,372.58a11.81,11.81,0,0,1,0,6.8,11.59,11.59,0,0,1,0-6.8Z" style="fill:#263238"></path><path d="M266.58,372.58a11.59,11.59,0,0,1,0,6.8,11.81,11.81,0,0,1,0-6.8Z" style="fill:#263238"></path><path d="M299.74,372.58a11.59,11.59,0,0,1,0,6.8,10.27,10.27,0,0,1-.5-3.4A10.78,10.78,0,0,1,299.74,372.58Z" style="fill:#263238"></path><path d="M332.91,372.58a10.5,10.5,0,0,1,.5,3.4,10.27,10.27,0,0,1-.5,3.4,11.59,11.59,0,0,1,0-6.8Z" style="fill:#263238"></path><path d="M366.07,372.58a11.81,11.81,0,0,1,0,6.8,11.81,11.81,0,0,1,0-6.8Z" style="fill:#263238"></path><path d="M399.23,372.58a11.59,11.59,0,0,1,0,6.8,10.27,10.27,0,0,1-.5-3.4A10.5,10.5,0,0,1,399.23,372.58Z" style="fill:#263238"></path><path d="M432.4,372.58a10.78,10.78,0,0,1,.5,3.4,10.27,10.27,0,0,1-.5,3.4,11.59,11.59,0,0,1,0-6.8Z" style="fill:#263238"></path><polygon points="32.13 379.38 86.6 379.14 141.06 379.05 250 378.88 358.94 379.05 413.4 379.14 467.87 379.38 413.4 379.63 358.94 379.71 250 379.88 141.06 379.71 86.6 379.62 32.13 379.38" style="fill:#263238"></polygon></g><g id="freepik--Trees--inject-474"><path d="M62.4,331.26s11.23,24.94-7.1,25-6.48-25.79-6.48-25.79-4.25-1.87.66-15.79,7.11-13.93,9.15-13.94c2.59,0,5,6,3.25,15.28C61.88,316,68.34,327.52,62.4,331.26Z" style="fill:#37474f"></path><polygon points="53.69 372.78 55.41 335.18 57.22 372.77 53.69 372.78" style="fill:#263238"></polygon><polygon points="54.71 350.94 61.37 343.15 56.15 351.97 54.71 350.94" style="fill:#263238"></polygon><path d="M200.18,334s-5.23-2.07-9.38,5.15c-4.24,7.41,1.1,12.29,5.33,9.38,0,0,3.32,7,10,5.3s7.71-7,7.71-7,5.9.41,6.06-4-4.16-8.3-4.16-8.3-.26-10.95-7.4-10.86S200.18,334,200.18,334Z" style="fill:#455a64"></path><polygon points="205.07 372.78 206.53 340.18 208.06 372.77 205.07 372.78" style="fill:#263238"></polygon><polygon points="206.1 352.43 201.51 343.29 206.86 351 206.1 352.43" style="fill:#263238"></polygon><path d="M87,334s-5.23-2.07-9.37,5.15c-4.25,7.41,1.09,12.29,5.32,9.38,0,0,3.33,7,10,5.3s7.71-7,7.71-7,5.89.41,6-4-4.16-8.3-4.16-8.3-.26-10.95-7.4-10.86S87,334,87,334Z" style="fill:#455a64"></path><polygon points="91.91 372.78 93.37 340.18 94.9 372.77 91.91 372.78" style="fill:#263238"></polygon><polygon points="92.94 352.43 88.34 343.29 93.69 351 92.94 352.43" style="fill:#263238"></polygon><path d="M345.69,331.26s11.24,24.94-7.1,25-6.48-25.79-6.48-25.79-4.25-1.87.66-15.79,7.11-13.93,9.15-13.94c2.59,0,5,6,3.25,15.28C345.17,316,351.63,327.52,345.69,331.26Z" style="fill:#37474f"></path><polygon points="336.98 372.78 338.71 335.18 340.52 372.77 336.98 372.78" style="fill:#263238"></polygon><polygon points="338.01 350.94 344.66 343.15 339.44 351.97 338.01 350.94" style="fill:#263238"></polygon><path d="M180.5,336.42s-9.79,21.88,6.27,21.86,5.62-22.61,5.62-22.61,3.72-1.64-.61-13.83-6.25-12.19-8-12.19c-2.26,0-4.37,5.29-2.81,13.39C180.93,323,175.29,333.16,180.5,336.42Z" style="fill:#37474f"></path><polygon points="188.21 372.77 186.62 339.85 185.11 372.78 188.21 372.77" style="fill:#263238"></polygon><polygon points="187.27 353.65 181.42 346.84 186.01 354.55 187.27 353.65" style="fill:#263238"></polygon><path d="M435.27,334s-5.23-2.07-9.38,5.15c-4.24,7.41,1.1,12.29,5.33,9.38,0,0,3.32,7,10,5.3s7.71-7,7.71-7,5.9.41,6.06-4-4.16-8.3-4.16-8.3-.26-10.95-7.4-10.86S435.27,334,435.27,334Z" style="fill:#455a64"></path><polygon points="440.17 372.78 441.62 340.18 443.15 372.77 440.17 372.78" style="fill:#263238"></polygon><polygon points="441.18 352.39 436.6 343.29 442.08 350.99 441.18 352.39" style="fill:#263238"></polygon></g><g id="freepik--Character--inject-474"><path d="M259.35,352.53S253.94,393,253.94,393c.2,7.91.52,14.83,1,18.4a.13.13,0,0,0,0,.06,5.54,5.54,0,0,0,.65,2.43l0,.05c2.4,1.53,65.62,1.78,67.83,1.05s.29-7.08-2.16-9.05-26.62-12.89-26.62-12.89l5-40.42Z" style="fill:#ad6359"></path><path d="M323.47,415c-2.2.73-65.42.48-67.82-1.05,0,0,0,0,0-.05a5.44,5.44,0,0,1-.64-2.43s0,0,0-.06c-.51-3.56-.82-10.5-1-18.4,0,0,1.89-14.13,3.43-25.68H297.9l-3.2,25.73s24.15,10.92,26.62,12.89S325.7,414.26,323.47,415Z" style="fill:#ebebeb"></path><path d="M297.6,369.74l-.12.93H256.93c0-.32.08-.63.13-.93Z" style="fill:#3B82F6"></path><path d="M297.24,372.65l-.12.93H256.54l.12-.93Z" style="fill:#37474f"></path><path d="M296.88,375.57l-.12.93H256.15q.06-.45.12-.93Z" style="fill:#3B82F6"></path><path d="M323.76,415.09c-2.24.73-66.44.89-68.88-.67-.65-.42-1.81-11.19-1.24-21.34.24-4.28,1.34-8.45,1.62-11.69l42,.37s-1.58,11.08-1.08,11.32c4.12,1.95,23.18,11,25.39,12.81C324.08,407.89,326,414.35,323.76,415.09Z" style="fill:#3B82F6"></path><path d="M322.86,412.51c-10.75-.34-54.16-.72-64.82-.25-.09,0-.09.07,0,.07,10.65.58,54.06.6,64.82.36C323.09,412.68,323.09,412.52,322.86,412.51Z" style="fill:#263238"></path><path d="M317.49,403.55a8.6,8.6,0,0,0-6.45,2.58,8.35,8.35,0,0,0-2.45,5.72c0,.07.12.07.13,0a10,10,0,0,1,8.77-8.17A.07.07,0,1,0,317.49,403.55Z" style="fill:#263238"></path><path d="M298.79,393.81c-4.3-.09-9.31,1.39-12,4.89-.1.14.09.28.22.22a59.26,59.26,0,0,1,11.86-4.58A.27.27,0,0,0,298.79,393.81Z" style="fill:#263238"></path><path d="M302.11,395.13c-4.31-.09-9.31,1.39-12,4.89-.11.14.09.28.21.22a59.72,59.72,0,0,1,11.87-4.58A.27.27,0,0,0,302.11,395.13Z" style="fill:#263238"></path><path d="M305.42,396.45c-4.3-.09-9.31,1.39-12,4.89-.1.14.09.29.22.22A59.87,59.87,0,0,1,305.49,397,.27.27,0,0,0,305.42,396.45Z" style="fill:#263238"></path><path d="M308.73,397.77c-4.3-.09-9.3,1.39-12,4.89-.1.14.09.29.22.22a59.72,59.72,0,0,1,11.87-4.58A.27.27,0,0,0,308.73,397.77Z" style="fill:#263238"></path><path d="M260.86,385.42c-4.83,0-4.87,7.49,0,7.51S265.7,385.45,260.86,385.42Z" style="fill:#263238"></path><path d="M303.53,382.36c-2.16-1.83-4.92-.09-6.28,1.78a20.14,20.14,0,0,0-1.65,2.76,23.21,23.21,0,0,0-2.22,7.08,3.55,3.55,0,0,0-.06.56.14.14,0,0,0,0,.14c0,.16,0,.31-.06.45a.12.12,0,0,0,.14.12.56.56,0,0,0,.44.41.4.4,0,0,0,.33-.05c.85-.58,1.74-1.15,2.63-1.73l.47-.3a23.66,23.66,0,0,0,5.88-4.92C304.52,386.92,305.58,384.08,303.53,382.36Zm-5.34,9.11-2.08,1.43c-.66.46-1.32.92-1.95,1.41a1.53,1.53,0,0,0-.22.16l-.23.17.09-.24s0,0,0,0c.62-1.69,1.18-3.42,1.93-5.07.13-.33.29-.66.45-1a24.65,24.65,0,0,1,1.58-2.9c1-1.4,5.21-5,5.6-.29C303.58,387.68,300,390.2,298.19,391.47Z" style="fill:#263238"></path><path d="M294.19,394.89a.13.13,0,0,0,0-.19,2.68,2.68,0,0,0-.26-.23l-.09-.09s0,0,0,0l-.43-.37a22.64,22.64,0,0,0-9.56-4.65c-2.26-.46-5.47.13-5.83,2.93s2.37,4,4.56,4.38a21.31,21.31,0,0,0,6.66-.2c1.55-.25,3.11-.55,4.62-.78h0A.52.52,0,0,0,294.19,394.89Zm-6.1.45c-2.16.28-6.53.88-8.13-1.16-2.87-3.73,2.66-4,4.32-3.58a23.48,23.48,0,0,1,3.13,1,59.61,59.61,0,0,1,5.9,2.89h0a2.39,2.39,0,0,1,.22.12l-.23,0-.65.06C291.14,394.91,289.63,395.16,288.09,395.34Z" style="fill:#263238"></path><path d="M251.36,386.2l45.75,2.15s17-92.8,19-115.16c.92-10.24-14.67-95.49-14.67-95.49L264.31,174s10.66,93.76,9.51,99.38C272.14,281.62,251.36,386.2,251.36,386.2Z" style="fill:#455a64"></path><path d="M295.68,379.05c-6.89-.49-4.91-.45-11.8-.86-3.37-.2-25.54-1.5-28.72-1.13-.07,0-.08.12,0,.14,3.13.68,25.32,1.59,28.69,1.73,6.9.27,4.93.12,11.83.32A.1.1,0,0,0,295.68,379.05Z" style="fill:#263238"></path><path d="M303.25,193.71a11.13,11.13,0,0,0-1.85-.4,12.85,12.85,0,0,1-1.48-.38,5.49,5.49,0,0,1-2.73-1.85,15.92,15.92,0,0,1-2.14-4.86c-.34-1.07-.69-2.13-1.05-3.19-.17-.52-.34-1-.52-1.54s-.46-1.22-.63-1.84c0-.1-.1,0-.07,0,.14.41.22.89.34,1.34l.39,1.56c.25.92.48,1.85.73,2.77a37.54,37.54,0,0,0,1.51,4.84c1.15,2.67,2.82,3.63,4.42,3.86a10.67,10.67,0,0,0,1.38.1,5.18,5.18,0,0,0,1.71-.15C303.34,194,303.34,193.75,303.25,193.71Z" style="fill:#263238"></path><path d="M270.73,180.47l2.35,20.79,2.22,20.81q2.19,20.81,4.09,41.65c.26,3.5.64,6.91.7,10.5-.47,3.54-1.17,6.91-1.82,10.36q-2,10.26-4.12,20.51l-4.3,20.48-8.63,46.53L273.45,305l4-20.53c.63-3.41,1.33-6.88,1.77-10.25-.08-3.38-.47-6.92-.74-10.37-1.2-13.89-2.57-27.77-3.88-41.66Z" style="fill:#263238"></path><path d="M294.55,177l-21.82,77.41c-2.61-29.57-8.41-80.43-8.41-80.43Z" style="fill:#263238"></path><path d="M171.09,247.24s-32.7-5.31-32.73-5.33c-6.47-4.54-12.23-8.4-15.39-10.13l0,0a5.69,5.69,0,0,0-2.34-.93h-.07c-2.65,1-40.45,51.69-41.18,53.9s5.53,4.45,8.56,3.65,26.19-13.73,26.19-13.73l43.52,7.23Z" style="fill:#ad6359"></path><path d="M162.65,245.87l-19.26,33.66-29.31-4.87s-23.14,12.92-26.19,13.73-9.29-1.43-8.56-3.64,38.52-52.9,41.18-53.91h.07a5.67,5.67,0,0,1,2.33.93.07.07,0,0,1,.06,0c3.16,1.72,8.92,5.59,15.39,10.12Z" style="fill:#ebebeb"></path><path d="M160.43,245.52,141,279.13l-1-.16,19.43-33.62Z" style="fill:#3B82F6"></path><path d="M157.35,245l-19.42,33.6-1-.16,19.42-33.61Z" style="fill:#37474f"></path><path d="M154.27,244.51l-19.41,33.6-1-.16,19.41-33.59C153.62,244.4,154,244.46,154.27,244.51Z" style="fill:#3B82F6"></path><path d="M79.09,284.91c.74-2.24,38.79-53.94,41.5-55,.72-.28,9.5,6.06,17.95,11.73.44.29,6.38.89,10.13,1.69l-22.48,34s-12.53-1.78-13-1.52c-4,2.15-22.65,12.08-25.4,12.8C84.69,289.45,78.34,287.16,79.09,284.91Z" style="fill:#3B82F6"></path><path d="M81.69,285.72c6.68-8.44,32.8-43.12,38.75-52,0-.07,0-.1,0,0-6.8,8.23-32.64,43.11-38.84,51.91C81.42,285.8,81.55,285.9,81.69,285.72Z" style="fill:#263238"></path><path d="M92.09,286.73A8.61,8.61,0,0,0,93.86,280a8.4,8.4,0,0,0-3.15-5.37s-.12.06-.08.1A10,10,0,0,1,92,286.65C91.94,286.73,92,286.8,92.09,286.73Z" style="fill:#263238"></path><path d="M111,277.49c2.63-3.4,4.42-8.31,3.21-12.56,0-.17-.28-.1-.3,0a59.9,59.9,0,0,1-3.38,12.26A.27.27,0,0,0,111,277.49Z" style="fill:#263238"></path><path d="M108,279.37c2.63-3.4,4.42-8.31,3.21-12.56,0-.17-.28-.1-.31,0a59.25,59.25,0,0,1-3.37,12.26A.27.27,0,0,0,108,279.37Z" style="fill:#263238"></path><path d="M105,281.25c2.64-3.41,4.42-8.31,3.22-12.56,0-.17-.28-.1-.31,0A59.42,59.42,0,0,1,104.51,281,.27.27,0,0,0,105,281.25Z" style="fill:#263238"></path><path d="M101.94,283.13c2.64-3.41,4.42-8.31,3.21-12.57,0-.16-.28-.09-.3.05a59.45,59.45,0,0,1-3.38,12.26A.27.27,0,0,0,101.94,283.13Z" style="fill:#263238"></path><path d="M140.34,252c2.89-3.87-3.12-8.37-6-4.5S137.44,255.86,140.34,252Z" style="fill:#263238"></path><path d="M117.43,288.11c2.75-.65,3-3.91,2.3-6.11a19.13,19.13,0,0,0-1.24-3,23,23,0,0,0-4.37-6,3.69,3.69,0,0,0-.41-.38.21.21,0,0,0-.11-.1l-.32-.31a.12.12,0,0,0-.18.05.55.55,0,0,0-.59.1.37.37,0,0,0-.16.3c0,1-.11,2.08-.17,3.14l0,.56a23.26,23.26,0,0,0,.46,7.64C113.17,286.19,114.83,288.74,117.43,288.11Zm-4.14-9.71c0-.85,0-1.68.07-2.52s0-1.61,0-2.41a2.44,2.44,0,0,0,0-.27c0-.09,0-.2,0-.29l.15.22s0,0,0,0c1,1.51,2,3,2.93,4.57.19.31.36.63.53.95a22.56,22.56,0,0,1,1.38,3c.57,1.6.92,7.15-3.08,4.67C113.12,285,113.25,280.57,113.29,278.4Z" style="fill:#263238"></path><path d="M112.92,273.15a.12.12,0,0,0,.14.12l.34-.07.12,0s0,0,0,0a4.88,4.88,0,0,0,.55-.12,22.77,22.77,0,0,0,9.43-4.92c1.71-1.54,3.15-4.47,1.11-6.43s-4.65-.49-6.23,1.06a21.34,21.34,0,0,0-3.8,5.47c-.73,1.4-1.41,2.83-2.12,4.18l0,0A.53.53,0,0,0,112.92,273.15Zm3.25-5.18c1.07-1.89,3.18-5.77,5.78-5.84,4.7-.09,1.62,4.51.31,5.6a23.12,23.12,0,0,1-2.71,1.9,60.82,60.82,0,0,1-5.84,3h0l-.22.11a1.39,1.39,0,0,0,.11-.21c.12-.18.23-.36.34-.55C114.71,270.68,115.41,269.32,116.17,268Z" style="fill:#263238"></path><path d="M297.68,177.28v0c-.24.75-4,12.55-7.77,22.64-2.71,7.37-4.34,13.41-5.57,14s-9.1,3.24-11.32,3.92c0,0-20.27,65.74-34.16,73-17.69,9.26-112.76-6.31-112.76-6.31l18-42.82s67.49,9.37,70.64,7.82c3.49-1.72,20.88-44.16,20.88-44.16s2.21-23.67,11.2-33.2Z" style="fill:#455a64"></path><path d="M137.91,283.11c2.63-6.39,2-4.52,4.53-10.93,1.25-3.14,9.46-23.77,10.11-26.91,0-.07-.1-.11-.13-.05-1.63,2.76-9.48,23.53-10.67,26.69-2.43,6.47-1.66,4.64-4,11.13A.1.1,0,1,0,137.91,283.11Z" style="fill:#263238"></path><path d="M249.36,194.59c1.18-.18,2.42-.15,3.61-.22,1-.06,1.92-.13,2.88-.24a12.54,12.54,0,0,0,5.2-1.61c1.75-1.1,2.76-2.93,3.73-4.7.58-1,1.17-2.09,1.76-3.12.29-.5.58-1,.88-1.5a20.78,20.78,0,0,0,1.07-1.8c0-.09.19,0,.14,0a12.53,12.53,0,0,0-.53,1.32c-.22.51-.42,1-.64,1.54-.38.91-.76,1.82-1.16,2.73a23,23,0,0,1-2.49,4.74c-2,2.59-5.22,3.39-8.36,3.47-.9,0-1.8,0-2.7,0a18.35,18.35,0,0,1-3.39-.31A.16.16,0,0,1,249.36,194.59Z" style="fill:#263238"></path><path d="M286.85,213a84.15,84.15,0,0,0-13.77,4.81.15.15,0,0,0,.1.29c4.62-1.47,9.32-2.84,13.86-4.55A.29.29,0,0,0,286.85,213Z" style="fill:#263238"></path><path d="M291.21,182.77c0-.15-.26-.21-.28-.05a147.28,147.28,0,0,1-2.22,14.74c-.43,2.26-3.52,14.69-7.39,13.38-.65-.22-.92-.91-.93-1.92a16.51,16.51,0,0,1,.91-3.81q1.06-3.9,1.82-7.86a72.78,72.78,0,0,0,1.32-14.94.13.13,0,0,0-.25,0,137.65,137.65,0,0,1-3.26,20.49c-.82,3.23-3,8,.41,8.85s6.53-7.18,7.19-9.4A76.11,76.11,0,0,0,291.21,182.77Z" style="fill:#263238"></path><path d="M281.39,211.19a21.19,21.19,0,0,0-1.15,2.52,5.88,5.88,0,0,0-.58,2.12c0,.14.18.17.26.08a7.28,7.28,0,0,0,1.13-2c.38-.78.78-1.55,1.14-2.34A.44.44,0,0,0,281.39,211.19Z" style="fill:#263238"></path><path d="M158.47,249.94c7.69.83,34.91,3.41,42.61,4.16,3.85.36,7.7.7,11.55.92a45.64,45.64,0,0,0,5.71.1l.33,0a.61.61,0,0,0,.26-.06,1.77,1.77,0,0,0,.43-.38,8.67,8.67,0,0,0,.83-1.11c.53-.79,1-1.62,1.47-2.46,3.65-6.78,6.68-13.92,9.82-21s6.08-14.22,9-21.38l0,.16a63.48,63.48,0,0,1,.81-8.95,83.9,83.9,0,0,1,4.56-17.27,83.74,83.74,0,0,1,3.61-8.17c-1.22,2.72-2.39,5.45-3.35,8.26a88,88,0,0,0-2.53,8.54A83.64,83.64,0,0,0,241.9,200a64,64,0,0,0-.66,8.83v.08l0,.07q-4.32,10.78-8.91,21.44-2.28,5.34-4.73,10.61c-1.63,3.51-3.29,7-5.18,10.42-.48.85-1,1.69-1.51,2.51a11.26,11.26,0,0,1-.92,1.2,2.87,2.87,0,0,1-.66.55,1,1,0,0,1-.44.12l-.4,0a9.6,9.6,0,0,1-1.5.06q-.74,0-1.47,0c-1,0-1.94-.09-2.9-.16-3.87-.29-7.72-.69-11.57-1.11C193.33,253.82,166.13,251,158.47,249.94Z" style="fill:#263238"></path><rect x="146.51" y="395.58" width="11.23" height="3.99" transform="translate(-252.48 265.28) rotate(-50.96)" style="fill:#3B82F6"></rect><path d="M181,390a30.36,30.36,0,1,0,30.36,30.35A30.35,30.35,0,0,0,181,390Zm0,52.57a22.22,22.22,0,1,1,22.22-22.22A22.22,22.22,0,0,1,181,442.52Z" style="fill:#263238"></path><path d="M149.71,420.72h-4c0-20.18,15.25-35.4,35.47-35.4,13.25,0,23.57,6.26,30.68,18.6l-3.46,2c-6.35-11-15.5-16.6-27.22-16.6C163,389.32,149.71,402.53,149.71,420.72Z" style="fill:#455a64"></path><path d="M388.65,390A30.36,30.36,0,1,0,419,420.3,30.35,30.35,0,0,0,388.65,390Zm0,52.57a22.22,22.22,0,1,1,22.22-22.22A22.22,22.22,0,0,1,388.65,442.52Z" style="fill:#263238"></path><path d="M357.41,420.72h-4c0-20.18,15.25-35.4,35.46-35.4,13.25,0,23.58,6.26,30.69,18.6l-3.47,2c-6.34-11-15.5-16.6-27.22-16.6C370.64,389.32,357.41,402.53,357.41,420.72Z" style="fill:#455a64"></path><rect x="172.48" y="415.4" width="172.33" height="9.82" style="fill:#37474f"></rect><rect x="278.83" y="258.86" width="130.51" height="4.18" transform="translate(503.04 -140.58) rotate(74.42)" style="fill:#455a64"></rect><rect x="318.14" y="177.96" width="17.9" height="4.18" transform="translate(646.56 -13.19) rotate(120)" style="fill:#37474f"></rect><rect x="334.6" y="348.67" width="70.62" height="9.82" transform="translate(611.16 -97.7) rotate(74.42)" style="fill:#3B82F6"></rect><rect x="353.1" y="391.86" width="56.52" height="5.56" transform="matrix(0.27, 0.96, -0.96, 0.27, 659.09, -78.69)" style="fill:#455a64"></rect><rect x="316.67" y="190.68" width="17.87" height="7.43" transform="translate(425.42 -171.45) rotate(74.42)" style="fill:#37474f"></rect><polygon points="372.37 375.89 344.06 410.93 330.1 410.93 367.88 363.95 372.37 375.89" style="fill:#3B82F6"></polygon><rect x="318.47" y="410.93" width="26.34" height="4.46" style="fill:#37474f"></rect><path d="M341,170.12a6.06,6.06,0,1,1-6.06-6.06A6.06,6.06,0,0,1,341,170.12Z" style="fill:#37474f"></path><path d="M338.54,170.12a3.57,3.57,0,1,1-3.57-3.57A3.57,3.57,0,0,1,338.54,170.12Z" style="fill:#3B82F6"></path><path d="M48.06,407.68c6.71-.21,13.43-.31,20.14-.39s13.43-.07,20.15-.11l20.14.11,10.08.14c3.36.08,6.71.13,10.07.25-3.36.11-6.71.16-10.07.24l-10.08.14-20.14.11c-6.72,0-13.43,0-20.15-.11S54.77,407.88,48.06,407.68Z" style="fill:#263238"></path><path d="M84,401c4.67-.2,9.34-.3,14-.38s9.34-.07,14-.11,9.34,0,14,.11l7,.14c2.34.08,4.67.13,7,.24-2.34.12-4.67.17-7,.25l-7,.14c-4.67.08-9.34.08-14,.11s-9.34,0-14-.11S88.63,401.23,84,401Z" style="fill:#263238"></path><path d="M93.31,414.41c4.06-.2,8.12-.3,12.17-.38s8.11-.07,12.17-.11,8.11,0,12.17.11l6.08.14c2,.08,4.06.13,6.09.24-2,.12-4.06.17-6.09.25l-6.08.14c-4.06.08-8.11.07-12.17.11s-8.11,0-12.17-.11S97.37,414.62,93.31,414.41Z" style="fill:#263238"></path><path d="M67.92,414.41a56.81,56.81,0,0,1,8-.49,56.81,56.81,0,0,1,8,.49,55.37,55.37,0,0,1-8,.5A55.37,55.37,0,0,1,67.92,414.41Z" style="fill:#263238"></path><path d="M283.77,115.29c0,13.53,2.85,29.36,3.46,32.23,1,4.58,8.38,19,23,30,3,2.29,15.34-21.48,11.69-23.27-9.54-4.66-15.86-8.5-16.5-10.8-.52-1.89-7.7-21.48-9.77-26.06C289.36,103.6,283.77,108.36,283.77,115.29Z" style="fill:#ad6359"></path><path d="M323.21,177.87c-1.57-.09-1.64.73.45,2.6s11.95,7.48,9.7,10.75-16-4.85-19.28-8.22-7.3-10-7.3-10C309.78,174.07,317.3,175.9,323.21,177.87Z" style="fill:#ad6359"></path><path d="M316.83,151.91c8.34,3.24,18.93,6.78,25.18,14.71a5,5,0,0,1,1.16,3.06c2.86,3.51,2.07,5.91,2.07,5.91,1.67,4.08.52,6.43.52,6.43s3.32,4.16,1.15,6.58c-2.44,2.72-6.62-3.64-11.07-5.73-10.18-4.79-26-8.75-29.06-9.84Z" style="fill:#ad6359"></path><path d="M328.7,170.35a73.4,73.4,0,0,1,8.68,4.7,73.29,73.29,0,0,1,8.26,7,.09.09,0,0,0,.12-.12,38.15,38.15,0,0,0-17-11.69C328.61,170.16,328.55,170.28,328.7,170.35Z" style="fill:#263238"></path><path d="M330.7,163.79c2.81,1.59,7.73,4.41,14.46,11.88,0,0,.07,0,0,0a34.32,34.32,0,0,0-14.43-12C330.59,163.57,330.51,163.68,330.7,163.79Z" style="fill:#263238"></path><path d="M331.84,160.28c4.67,2.88,7.25,5.3,11.29,9.4,0,0,.07,0,.05,0-4.1-5.15-6.17-6.55-11.26-9.54C331.74,160,331.66,160.17,331.84,160.28Z" style="fill:#263238"></path><path d="M303.55,132.88l-20.88,11.79s-.83-26.35,1.12-34.17c2.18-8.8,6.21-5.76,10.71,1.59S303.55,132.88,303.55,132.88Z" style="fill:#3B82F6"></path><g style="opacity:0.1"><path d="M286.07,140.71a6.93,6.93,0,0,0-3.53-1.63c0,.44,0,.85,0,1.25a4.85,4.85,0,0,1,3.53,2.41l1-.59A4.75,4.75,0,0,0,286.07,140.71Z"></path><path d="M303.38,132.39c-.44.41-.88.87-1.33,1.34l1.5-.85Zm-6.76-11.76c-2.24,2.89-6.11,1.88-8,1.45a17,17,0,0,0-6-.29c0,.32,0,.64,0,1a19.06,19.06,0,0,1,6.22.25,11.71,11.71,0,0,0,5.16.26,6.4,6.4,0,0,0,2.54-1.36,11.31,11.31,0,0,0,1.95-2c-.16-.37-.32-.74-.49-1.1C297.53,119.44,297.08,120,296.62,120.63Zm-4.19,13.51a12.4,12.4,0,0,0-4.15-2.17,14.3,14.3,0,0,0-5.21-.37l-.58.07v1a17.71,17.71,0,0,1,3.42-.11,10.51,10.51,0,0,1,5.27,1.89,23.73,23.73,0,0,0,4,2.69,5.1,5.1,0,0,0,.5.19l1.28-.72a4.23,4.23,0,0,1-.68-.12A12.1,12.1,0,0,1,292.43,134.14Z"></path><path d="M283.15,114.46a30.11,30.11,0,0,1,.64-4,14.93,14.93,0,0,1,1.22-3.41A7.61,7.61,0,0,1,283.15,114.46Z"></path></g><path d="M301,129.63c-.79.31-7.32,3.93-8.73,4.74s-7.17,4.11-8.55,5.07a.06.06,0,0,0,.06.11c1.52-.69,7.35-4,8.8-4.79s7.83-4.53,8.48-5A.06.06,0,0,0,301,129.63Z" style="fill:#263238"></path><path d="M298.5,135.73l-15.83,8.94s-.82-26.35,1.12-34.17c1.37-5.49,3.45-6.38,5.92-4.46C292.22,112.52,296.61,128.81,298.5,135.73Z" style="opacity:0.1"></path><path d="M303.89,182.36l-63.72-1.84c-.81-1.15,16.58-60.6,29.5-72.42,9.79-8.95,18.33-3.17,20.27-.11C296.53,118.38,304.82,181.48,303.89,182.36Z" style="fill:#3B82F6"></path><g style="opacity:0.1"><path d="M286.07,140.71a8.42,8.42,0,0,0-6.09-1.79c-2.88.12-5.79,1.13-8.64.32-2.49-.71-4.52-2.48-6.78-3.66a13.58,13.58,0,0,0-9.52-1.14c-.19.46-.38.92-.56,1.39a12.68,12.68,0,0,1,6-.45,16.89,16.89,0,0,1,6.17,2.86,13.07,13.07,0,0,0,6.76,2.54c2.63.08,5.2-.78,7.84-.63,2.13.12,4.46,1,5.11,3.24a6.88,6.88,0,0,1-1.91,6.36,8.36,8.36,0,0,1-6.12,2.67c-5,0-9.59-3.5-14.68-2.06a6.89,6.89,0,0,0-2.75,1.52,19.14,19.14,0,0,0-2.28,3,16.51,16.51,0,0,1-4.77,4.35,18.31,18.31,0,0,1-8.64,2.66c-.13.39-.25.78-.37,1.16a19.18,19.18,0,0,0,11.48-4.23,18.07,18.07,0,0,0,2.39-2.32c.83-1,1.46-2.09,2.26-3.08,3.68-4.55,10-1.1,14.52-.15a10.51,10.51,0,0,0,7.45-.86,9.52,9.52,0,0,0,4.31-5C288.07,145.18,287.91,142.42,286.07,140.71Z"></path><path d="M303.92,180.63q-.26.52-.48,1.05c-.09.21-.17.44-.26.66l.71,0A5,5,0,0,0,303.92,180.63Zm-1.1-10.52a10.87,10.87,0,0,0-4.08-1c-1.92-.09-4.33.49-5.39,2.26a4.67,4.67,0,0,0-.51,1.41,3,3,0,0,1-.63,1.7,2.56,2.56,0,0,1-1.7.37c-.79,0-1.58-.07-2.37-.09-2.32-.07-5.17.3-6.45,2.53a3.34,3.34,0,0,0,.77,4.43l9.21.27a9.22,9.22,0,0,0-1.27-.48,8.76,8.76,0,0,0-3.57-.13,6.18,6.18,0,0,1-3.44-.17,2.23,2.23,0,0,1-1.17-2.75c.68-2.51,3.82-2.75,5.95-2.65s4.78.71,5.49-1.8c.31-1.09.32-2.08,1.2-2.91a5.32,5.32,0,0,1,3.06-1.2,11.71,11.71,0,0,1,5,.68Z"></path><path d="M297.64,136.6a3.58,3.58,0,0,1-1.36-.12,12.1,12.1,0,0,1-3.85-2.34,12.4,12.4,0,0,0-4.15-2.17,14.3,14.3,0,0,0-5.21-.37,22.82,22.82,0,0,1-4.51.31,3.33,3.33,0,0,1-3.25-2.69,4.79,4.79,0,0,1,2.21-4.52c3.25-2.31,7.56-2.43,11.33-1.69a11.71,11.71,0,0,0,5.16.26,5.66,5.66,0,0,0,.82-.28c-.07-.28-.13-.56-.19-.83-2.11.88-4.61.24-6-.08-3.79-.87-8.37-.51-11.63,1.8a6,6,0,0,0-2.67,4.28,4.18,4.18,0,0,0,1.95,4.06,7.37,7.37,0,0,0,4.42.63,29.34,29.34,0,0,1,5.21-.3,10.51,10.51,0,0,1,5.27,1.89,23.73,23.73,0,0,0,4,2.69,5.15,5.15,0,0,0,2.63.42C297.75,137.23,297.69,136.92,297.64,136.6Z"></path><path d="M282.48,115.1a7.58,7.58,0,0,1-4.41,1.8c-2,.13-3.91-.39-5.88-.45a5.52,5.52,0,0,0-4.59,1.79,15.2,15.2,0,0,0-2.13,4,15,15,0,0,1-2.18,3.93,7.65,7.65,0,0,1-4.47,2.54,7.55,7.55,0,0,1-1.41.13c4.08-9.29,8.37-17.16,12.26-20.71,4.88-4.46,9.44-5.26,13-4.57h0a8.12,8.12,0,0,1,2,2.84A7.61,7.61,0,0,1,282.48,115.1Z"></path><path d="M276.17,175.2c-1.32.92-2.94,1.26-4.28,2.15a3.7,3.7,0,0,0-1.52,2,10.26,10.26,0,0,1-.81,2.06l-13.84-.4c-.67-1.39-1.25-2.95-2.63-3.78-1.58-1-3.52-.9-5.26-1.31a5.23,5.23,0,0,1-3.81-2.67,2.88,2.88,0,0,1,.9-3.67c1.44-1,3.25-.64,4.87-.76,1.86-.15,2.88-1.38,4-2.75a7.19,7.19,0,0,1,3.48-2.7,6,6,0,0,1,4.49.43,17.42,17.42,0,0,1,3.45,3.14,5.88,5.88,0,0,0,2,1.38,7.07,7.07,0,0,0,2.62.35,25.64,25.64,0,0,1,5.18-.08c1.5.25,3.09,1.15,3.35,2.78S277.41,174.33,276.17,175.2Z"></path><path d="M302.23,165.59c-2.47-.48-4.73-2-7.27-2.33-2-.27-4.06.35-6.06.59a8.77,8.77,0,0,1-4.31-.44,4.32,4.32,0,0,1-2-6.93c2.14-3,6-3.06,9.33-3.62a9.11,9.11,0,0,0,4.83-2.05c1-.95,1.85-2.11,2.84-3.11C300.6,154,301.51,160.22,302.23,165.59Z"></path></g><path d="M286.38,116.4c-3.58.53-9.16-5.34-11.17-9.89-.14-.32.58-3.42,1.28-7.24.42-2.31.82-4.9,1-7.29,0-.49,14.68,4.9,14.68,4.9a38.57,38.57,0,0,0-2.22,9.06,6.34,6.34,0,0,0,0,1s0,.11,0,.17C290.15,109,289.84,115.88,286.38,116.4Z" style="fill:#ad6359"></path><path d="M278.43,92.12c.36,4.1,2.05,14.07,10,14.92a9.06,9.06,0,0,0,1.54,0,.86.86,0,0,0,0-.17,6.31,6.31,0,0,1,0-1,38.41,38.41,0,0,1,2.22-9.06S281.63,93,278.43,92.12Z" style="fill:#263238"></path><path d="M279,73.72c-2.45,5-2.11,20.66,1.1,24.65,4.64,5.79,13.45,7.68,18.67,1.83,5.06-5.68,4.26-26.08.57-29.83C293.9,64.85,282.62,66.32,279,73.72Z" style="fill:#ad6359"></path><path d="M292.54,85.64s-.09,0-.08.09c0,1.06-.1,2.27-1,2.63a0,0,0,0,0,0,.06C292.58,88.25,292.74,86.63,292.54,85.64Z" style="fill:#263238"></path><path d="M291.59,84.54c-1.7-.12-1.81,3.29-.24,3.4S293,84.65,291.59,84.54Z" style="fill:#263238"></path><path d="M298.5,85.88s.08.05.08.1c-.07,1,0,2.27,1,2.65a0,0,0,0,1,0,.06C298.38,88.48,298.27,86.87,298.5,85.88Z" style="fill:#263238"></path><path d="M299.48,84.81c1.7-.07,1.72,3.33.14,3.4S298.06,84.87,299.48,84.81Z" style="fill:#263238"></path><path d="M290.3,82.94a12.08,12.08,0,0,0,1.33-.42,2.23,2.23,0,0,0,1.28-.68.71.71,0,0,0-.09-.88,1.77,1.77,0,0,0-1.79-.24,2.64,2.64,0,0,0-1.55,1.08A.77.77,0,0,0,290.3,82.94Z" style="fill:#263238"></path><path d="M300.85,83.14a13.53,13.53,0,0,1-1.34-.39,2.34,2.34,0,0,1-1.29-.67.73.73,0,0,1,.08-.88,1.77,1.77,0,0,1,1.78-.27,2.64,2.64,0,0,1,1.57,1A.77.77,0,0,1,300.85,83.14Z" style="fill:#263238"></path><path d="M290.7,95.17c.24.25.48.6.86.65a2.8,2.8,0,0,0,1.14-.23s.07,0,.05.06a1.43,1.43,0,0,1-1.36.52,1.13,1.13,0,0,1-.8-1C290.58,95.15,290.66,95.13,290.7,95.17Z" style="fill:#263238"></path><path d="M291.91,92.05a3.64,3.64,0,0,0,2.34,1.68,5.07,5.07,0,0,0,1.29.1l.25,0,.23,0a.26.26,0,0,0,.22-.23h0a.41.41,0,0,0,0-.11h0v-.09c.05-.81,0-2,0-2,.29.16,1.78.89,1.77.46a53.55,53.55,0,0,0-1-10.91c0-.11-.2-.09-.19,0-.05,3.39.5,6.76.51,10.16a6.07,6.07,0,0,0-1.68-.57c-.11,0,.12,2.39.07,2.75v0A5,5,0,0,1,292,92C291.94,91.89,291.85,92,291.91,92.05Z" style="fill:#263238"></path><path d="M295.08,93.46a4.37,4.37,0,0,1-1.81,1.19,1.92,1.92,0,0,1-1.16,0c-.83-.29-.79-1.06-.58-1.71a5,5,0,0,1,.45-1A5.5,5.5,0,0,0,295.08,93.46Z" style="fill:#263238"></path><path d="M293.27,94.65a1.92,1.92,0,0,1-1.16,0c-.83-.29-.79-1.06-.58-1.71A2,2,0,0,1,293.27,94.65Z" style="fill:#ff9bbc"></path><path d="M277.09,88c-.33-1.43-3.28-16.76-2.81-18.4s2.05-.8,2.08-.88.14-1.46,1-1.93a2.32,2.32,0,0,1,1.84.11s.32-1.43,1.25-1.79a1.84,1.84,0,0,1,1.76.47,2.43,2.43,0,0,1,1.54-1.66,1.57,1.57,0,0,1,1.72.74s.45-1.36,1.41-1.58,1.74.83,1.74.83a2.09,2.09,0,0,1,1.73-1.2A1.81,1.81,0,0,1,291.9,64a2.48,2.48,0,0,1,1.83-1.17c1.08,0,1.4,1.38,1.4,1.38s.49-1.18,1.51-1.06,1.19,1.56,1.19,1.56.55-1.4,1.65-.78c1.37.79,2.09,9.77,2.34,13.61,0,0-.71-2.21-1.49-2.31s-1.42,1.11-2.89,1.37c-2.09.37-5.44-2.22-8.32-1.74s-5,3.3-6.2,7.62C281.57,87.37,277.88,91.37,277.09,88Z" style="fill:#263238"></path><path d="M280.71,87.39S278,82,275.54,82.89s-.82,8.43,1.67,9.78a2.7,2.7,0,0,0,3.79-.94Z" style="fill:#ad6359"></path><path d="M276.05,85a0,0,0,1,0,0,.06c1.73,1,2.47,2.85,2.9,4.72a1.49,1.49,0,0,0-2.15-.71c-.06,0,0,.11,0,.1a1.66,1.66,0,0,1,1.73.83,8.11,8.11,0,0,1,.66,1.58c.07.18.38.13.34-.06v0C279.91,89.17,278.54,85.62,276.05,85Z" style="fill:#263238"></path><path d="M265.64,117.75c-4.18,14-8.31,43.67-4.1,53.64,2.11,5,29.78,11.47,37.38,12.77,3.15.54,14.73-22.58,11.5-23.41-4.45-1.15-27.7-5.49-29.3-7.49s-3-21.23-3.65-33.6C276.61,104,269.18,105.91,265.64,117.75Z" style="fill:#ad6359"></path><path d="M301.64,159.13s12.14,1.16,19.11,2c3.89.44,10.49,1.79,13.19,3.42,4.06,2.44,19.44,15.23,16.42,19-2.73,3.43-14.56-9.23-14.56-9.23s13.07,11.72,9,15.26S329.3,177,329.3,177s13.15,12.34,8.4,15.33c-3.6,2.25-14.79-11.73-14.79-11.73s11.23,10.69,7.63,13.16c-4,2.74-15.12-9.52-15.12-9.52-10.2,4.76-18.92-.2-23.2-2.95C291.19,180.64,301.64,159.13,301.64,159.13Z" style="fill:#ad6359"></path><path d="M332.32,170.64c6,4.87,10.79,11.14,12.3,14,.19.35.34.67.32.64-2.66-3.17-11.22-13.13-12.67-14.59C332.23,170.66,332.29,170.61,332.32,170.64Z" style="fill:#263238"></path><path d="M326.19,175.14c5,3,9.29,9.1,11,11.07.13.16,0,.18-.13,0-1.81-1.91-9.05-9.25-10.94-11.06C326.11,175.15,326.15,175.12,326.19,175.14Z" style="fill:#263238"></path><path d="M321.27,179.22a27.34,27.34,0,0,1,7.8,8.36c.1.17,0,.17-.18,0-2.7-3-4.31-4.89-7.71-8.28C321.12,179.27,321.2,179.17,321.27,179.22Z" style="fill:#263238"></path><path d="M295.61,157.65a47.52,47.52,0,0,0,9.62,1.54l9.76.8c3.25.35,6.5.69,9.72,1.31a43.19,43.19,0,0,1,4.78,1.15,15.66,15.66,0,0,1,4.45,2.05,17.16,17.16,0,0,0-4.54-1.7,45.87,45.87,0,0,0-4.78-.94c-3.22-.49-6.45-.84-9.7-1.12s-6.5-.59-9.75-1c-1.62-.19-3.25-.39-4.85-.74A31.84,31.84,0,0,1,295.61,157.65Z" style="fill:#263238"></path><path d="M281,138.42l-23.27,5.79s6.23-25.62,10.19-32.63c4.45-7.9,7.52-3.89,9.9,4.39S281,138.42,281,138.42Z" style="fill:#3B82F6"></path><g style="opacity:0.1"><path d="M271.34,139.24c-2.49-.71-4.52-2.48-6.78-3.66a13.46,13.46,0,0,0-4.23-1.38q-.16.57-.3,1.11l.44.07a16.89,16.89,0,0,1,6.17,2.86,14.71,14.71,0,0,0,5.44,2.4l6.35-1.58C276.06,139.34,273.68,139.9,271.34,139.24Z"></path><path d="M280.47,131.9a11.08,11.08,0,0,1-1.91,0,3.33,3.33,0,0,1-3.25-2.69,4.79,4.79,0,0,1,2.21-4.52,10.33,10.33,0,0,1,1.92-1.07c-.06-.33-.11-.66-.16-1a11.39,11.39,0,0,0-2.28,1.23,6,6,0,0,0-2.67,4.28,4.18,4.18,0,0,0,1.95,4.06,7.18,7.18,0,0,0,4.29.64C280.54,132.55,280.51,132.23,280.47,131.9Z"></path><path d="M278.07,116.9c-2,.13-3.91-.39-5.88-.45a5.52,5.52,0,0,0-4.59,1.79,15.2,15.2,0,0,0-2.13,4,15,15,0,0,1-2.18,3.93,7.26,7.26,0,0,1-1,1c1.85-6.27,3.93-12.55,5.6-15.51,4.45-7.9,7.52-3.9,9.9,4.39C277.91,116.27,278,116.58,278.07,116.9Z"></path></g><path d="M279.43,134.62c-.83.08-8.1,1.82-9.67,2.24s-8,2-9.59,2.6c-.07,0-.05.13,0,.12,1.66-.25,8.16-1.88,9.76-2.27s8.76-2.27,9.52-2.59C279.53,134.69,279.49,134.61,279.43,134.62Z" style="fill:#263238"></path><path d="M278,139.17c1-.34,2-.66,3-1l-.17.22L280.3,134l-.45-4.47c-.29-3-.57-6-1-8.94a38.84,38.84,0,0,1,1,4.39c.28,1.49.48,3,.66,4.47.35,3,.57,6,.63,9v.18l-.16,0Q279.54,138.93,278,139.17Z" style="fill:#263238"></path><path d="M279.91,126.81a9.4,9.4,0,0,1,0-2,10.88,10.88,0,0,1,.36-2,5.92,5.92,0,0,1,.14,2A6.76,6.76,0,0,1,279.91,126.81Z" style="fill:#263238"></path><path d="M260.52,143.52c-.91.31-1.83.58-2.74.87l-.29.09.07-.31c.32-1.64.64-3.28,1-4.9s.79-3.25,1.23-4.86.92-3.22,1.44-4.8,1.08-3.17,1.73-4.72c-.4,1.63-.8,3.25-1.22,4.86s-.82,3.24-1.24,4.85l-1.28,4.83-1.34,4.82-.22-.21C258.63,143.86,259.57,143.67,260.52,143.52Z" style="fill:#263238"></path><path d="M261.45,126.3a16.38,16.38,0,0,1,0,2.53c0,.42-.07.83-.14,1.25a11,11,0,0,1-.23,1.25,8.68,8.68,0,0,1-.13-2.54A9.82,9.82,0,0,1,261.45,126.3Z" style="fill:#263238"></path></g></svg>